<?xml version="1.0" encoding="UTF-8"?>
<svg width="176px" height="58px" viewBox="0 0 176 58" version="1.1" xmlns="http://www.w3.org/2000/svg" xmlns:xlink="http://www.w3.org/1999/xlink">
    <!-- Generator: Sketch 40.3 (33839) - http://www.bohemiancoding.com/sketch -->
    <title>Page 1</title>
    <desc>Created with Sketch.</desc>
    <defs></defs>
    <g id="Page-1" stroke="none" stroke-width="1" fill="none" fill-rule="evenodd">
        <g id="MENU-SCROLL-EXAMPLE" transform="translate(-100.000000, -13.000000)">
            <g id="FOLLOW-MENU">
                <g id="Logo-Group" transform="translate(100.000000, 13.000000)">
                    <g id="Page-1">
                        <path d="M27.593504,37.0786194 C37.9673357,37.0786194 47.8760046,26.6606015 47.8760046,15.7616431 C47.8760046,10.8720823 44.8325777,7.50549943 40.3071747,7.50549943 C35.1599964,7.50549943 28.1404794,11.8339631 21.8993504,18.9655549 C21.6656002,19.4464953 21.5884627,19.847279 21.5089876,19.9274358 L20.4173744,24.0154292 C20.1836243,25.1376235 19.7932615,26.2598178 19.4028988,27.3820121 L17.6871727,32.5120431 L17.2968099,33.5540807 C20.6511246,35.9564251 24.0054392,37.0786194 27.593504,37.0786194 L27.593504,37.0786194 Z M15.6605589,26.7407582 C14.6437457,28.023266 14.1762454,28.7446766 13.7087451,29.4660872 C14.4894706,30.9089084 15.2701961,31.7906325 16.7521721,32.9929835 L17.2196724,31.6279615 C19.4028988,25.2177802 19.5595114,24.8169966 20.6511246,20.4885329 C18.8582609,22.4924513 17.7643102,23.9352725 15.6605589,26.7407582 L15.6605589,26.7407582 Z M4.73975181,43.8117851 C2.63132545,47.9799353 1.7757999,50.3846374 1.7757999,52.1480856 C1.7757999,53.51075 2.47705035,54.3924741 3.4891885,54.3924741 C6.29886531,54.3924741 10.9785433,47.2561672 15.6605589,35.7961117 L15.9714466,34.9945443 C14.2557204,33.8747076 13.4749949,33.0731402 12.3833817,31.3096921 C8.87245447,36.3572088 6.92297822,39.6436349 4.73975181,43.8117851 L4.73975181,43.8117851 Z M16.2846718,36.1190962 C13.3183823,43.0903745 11.6797938,46.3768007 9.18567968,50.3021231 C6.37600286,54.6305868 4.03616385,56.9574896 2.16382515,56.9574896 C0.995074392,56.9574896 0.291486438,55.9130945 0.291486438,54.2298031 C0.291486438,50.3021231 4.73975181,41.0864562 11.5255187,31.2295353 L11.9135439,30.5859239 C10.511043,28.1034227 9.88693013,25.6987207 9.88693013,23.2940186 C9.88693013,22.0916676 10.0435427,21.7710407 11.2122935,20.6488464 L11.2122935,21.2901002 C11.2122935,24.095586 11.8364064,26.4201313 13.3183823,28.8248333 L13.7882201,28.1835794 C15.4244712,25.8590341 17.8437853,22.6527647 18.9353985,21.370257 L20.573987,19.3663386 C20.6511246,19.2861819 20.8077372,19.1258684 21.0414873,18.7250847 C21.7450753,16.5608529 22.5234633,10.4712986 22.5234633,7.6658129 L22.5234633,6.70393208 C22.834351,6.54361861 23.0681011,6.54361861 23.2247137,6.46346188 C23.3041888,6.46346188 23.3813263,6.38330514 23.4584639,6.38330514 C23.7716891,6.38330514 24.0054392,6.70393208 24.0054392,7.02455902 C24.0054392,7.18487249 24.0054392,7.42534269 23.9283017,7.58565616 L23.8488266,8.30706678 C23.6150765,10.3109851 22.9909636,13.3545835 22.2897131,16.8013231 L22.1331005,17.5227337 C29.779068,9.58957453 36.798585,5.34126759 42.4156011,5.34126759 C47.1724167,5.34126759 50.2158436,8.78800718 50.2158436,13.9958374 C50.2158436,18.0838309 48.5001175,22.7329215 45.379553,27.3018553 C40.6204,34.0326635 33.5237454,38.120657 26.3452782,38.120657 C22.834351,38.120657 19.7932615,37.3214472 16.5955595,35.395328 L16.2846718,36.1190962 Z" id="Fill-1" fill="#FEFEFE"></path>
                        <path d="M27.593504,37.0786194 C37.9673357,37.0786194 47.8760046,26.6606015 47.8760046,15.7616431 C47.8760046,10.8720823 44.8325777,7.50549943 40.3071747,7.50549943 C35.1599964,7.50549943 28.1404794,11.8339631 21.8993504,18.9655549 C21.6656002,19.4464953 21.5884627,19.847279 21.5089876,19.9274358 L20.4173744,24.0154292 C20.1836243,25.1376235 19.7932615,26.2598178 19.4028988,27.3820121 L17.6871727,32.5120431 L17.2968099,33.5540807 C20.6511246,35.9564251 24.0054392,37.0786194 27.593504,37.0786194 L27.593504,37.0786194 Z M15.6605589,26.7407582 C14.6437457,28.023266 14.1762454,28.7446766 13.7087451,29.4660872 C14.4894706,30.9089084 15.2701961,31.7906325 16.7521721,32.9929835 L17.2196724,31.6279615 C19.4028988,25.2177802 19.5595114,24.8169966 20.6511246,20.4885329 C18.8582609,22.4924513 17.7643102,23.9352725 15.6605589,26.7407582 L15.6605589,26.7407582 Z M4.73975181,43.8117851 C2.63132545,47.9799353 1.7757999,50.3846374 1.7757999,52.1480856 C1.7757999,53.51075 2.47705035,54.3924741 3.4891885,54.3924741 C6.29886531,54.3924741 10.9785433,47.2561672 15.6605589,35.7961117 L15.9714466,34.9945443 C14.2557204,33.8747076 13.4749949,33.0731402 12.3833817,31.3096921 C8.87245447,36.3572088 6.92297822,39.6436349 4.73975181,43.8117851 L4.73975181,43.8117851 Z M16.2846718,36.1190962 C13.3183823,43.0903745 11.6797938,46.3768007 9.18567968,50.3021231 C6.37600286,54.6305868 4.03616385,56.9574896 2.16382515,56.9574896 C0.995074392,56.9574896 0.291486438,55.9130945 0.291486438,54.2298031 C0.291486438,50.3021231 4.73975181,41.0864562 11.5255187,31.2295353 L11.9135439,30.5859239 C10.511043,28.1034227 9.88693013,25.6987207 9.88693013,23.2940186 C9.88693013,22.0916676 10.0435427,21.7710407 11.2122935,20.6488464 L11.2122935,21.2901002 C11.2122935,24.095586 11.8364064,26.4201313 13.3183823,28.8248333 L13.7882201,28.1835794 C15.4244712,25.8590341 17.8437853,22.6527647 18.9353985,21.370257 L20.573987,19.3663386 C20.6511246,19.2861819 20.8077372,19.1258684 21.0414873,18.7250847 C21.7450753,16.5608529 22.5234633,10.4712986 22.5234633,7.6658129 L22.5234633,6.70393208 C22.834351,6.54361861 23.0681011,6.54361861 23.2247137,6.46346188 C23.3041888,6.46346188 23.3813263,6.38330514 23.4584639,6.38330514 C23.7716891,6.38330514 24.0054392,6.70393208 24.0054392,7.02455902 C24.0054392,7.18487249 24.0054392,7.42534269 23.9283017,7.58565616 L23.8488266,8.30706678 C23.6150765,10.3109851 22.9909636,13.3545835 22.2897131,16.8013231 L22.1331005,17.5227337 C29.779068,9.58957453 36.798585,5.34126759 42.4156011,5.34126759 C47.1724167,5.34126759 50.2158436,8.78800718 50.2158436,13.9958374 C50.2158436,18.0838309 48.5001175,22.7329215 45.379553,27.3018553 C40.6204,34.0326635 33.5237454,38.120657 26.3452782,38.120657 C22.834351,38.120657 19.7932615,37.3214472 16.5955595,35.395328 L16.2846718,36.1190962 L16.2846718,36.1190962 Z" id="Stroke-3" stroke="#FEFEFE" stroke-width="0.5"></path>
                        <path d="M58.0745237,29.4821185 C59.1404244,28.8691553 59.6102622,28.1666051 59.6102622,27.3343896 C59.6102622,26.3277153 58.7570742,25.7123944 57.3054857,25.7123944 C55.1316093,25.7123944 52.272845,27.2471602 50.4799813,29.3500957 C49.243443,30.7528385 48.43233,32.462063 48.43233,33.4239438 C48.43233,34.3457463 49.0728054,35.003503 49.9680685,35.003503 C51.7188571,35.003503 54.3625713,32.5940859 56.19751,29.2628663 C56.4522977,29.1308434 56.5808602,29.0884075 56.7514979,29.0884075 C56.9642105,29.0884075 57.0062855,29.1308434 57.2634107,29.4373251 C56.2816601,31.1489071 55.7276722,32.6813153 55.7276722,33.8648059 C55.7276722,34.7394573 56.155435,35.2675487 56.8379854,35.2675487 C57.688836,35.2675487 58.7126616,34.6074344 60.5055253,32.9877969 C61.5293509,32.1107879 62.8523768,30.7528385 63.6190773,29.8758296 L64.1309901,29.2628663 C64.6008279,28.7371324 64.6873155,28.649903 64.8135406,28.649903 C64.9000281,28.649903 64.9841782,28.6946965 64.9841782,28.8243618 C64.9841782,28.9563847 64.9000281,29.043614 63.8317899,30.2695406 C60.4190377,34.126494 57.6467609,36.2718655 56.19751,36.2718655 C55.1736843,36.2718655 54.4911339,35.4420075 54.4911339,34.1712875 C54.4911339,33.6031177 54.575284,33.1622557 54.7459216,32.2428108 L54.4490589,32.5492924 C52.1442824,35.0482965 50.3093437,36.2294296 48.7736052,36.2294296 C47.7077045,36.2294296 47.0251541,35.4844434 47.0251541,34.3009528 C47.0251541,32.4196271 48.8600928,29.6141414 51.3775819,27.6856647 C53.5093833,26.108463 55.9824599,25.0994312 57.8173985,25.0994312 C59.6102622,25.0994312 60.5920128,25.7571879 60.5920128,26.9831144 C60.5920128,28.0793757 59.7808998,29.043614 58.1586738,29.7438067 L58.0745237,29.4821185 Z" id="Fill-5" fill="#FEFEFE"></path>
                        <path d="M58.0745237,29.4821185 C59.1404244,28.8691553 59.6102622,28.1666051 59.6102622,27.3343896 C59.6102622,26.3277153 58.7570742,25.7123944 57.3054857,25.7123944 C55.1316093,25.7123944 52.272845,27.2471602 50.4799813,29.3500957 C49.243443,30.7528385 48.43233,32.462063 48.43233,33.4239438 C48.43233,34.3457463 49.0728054,35.003503 49.9680685,35.003503 C51.7188571,35.003503 54.3625713,32.5940859 56.19751,29.2628663 C56.4522977,29.1308434 56.5808602,29.0884075 56.7514979,29.0884075 C56.9642105,29.0884075 57.0062855,29.1308434 57.2634107,29.4373251 C56.2816601,31.1489071 55.7276722,32.6813153 55.7276722,33.8648059 C55.7276722,34.7394573 56.155435,35.2675487 56.8379854,35.2675487 C57.688836,35.2675487 58.7126616,34.6074344 60.5055253,32.9877969 C61.5293509,32.1107879 62.8523768,30.7528385 63.6190773,29.8758296 L64.1309901,29.2628663 C64.6008279,28.7371324 64.6873155,28.649903 64.8135406,28.649903 C64.9000281,28.649903 64.9841782,28.6946965 64.9841782,28.8243618 C64.9841782,28.9563847 64.9000281,29.043614 63.8317899,30.2695406 C60.4190377,34.126494 57.6467609,36.2718655 56.19751,36.2718655 C55.1736843,36.2718655 54.4911339,35.4420075 54.4911339,34.1712875 C54.4911339,33.6031177 54.575284,33.1622557 54.7459216,32.2428108 L54.4490589,32.5492924 C52.1442824,35.0482965 50.3093437,36.2294296 48.7736052,36.2294296 C47.7077045,36.2294296 47.0251541,35.4844434 47.0251541,34.3009528 C47.0251541,32.4196271 48.8600928,29.6141414 51.3775819,27.6856647 C53.5093833,26.108463 55.9824599,25.0994312 57.8173985,25.0994312 C59.6102622,25.0994312 60.5920128,25.7571879 60.5920128,26.9831144 C60.5920128,28.0793757 59.7808998,29.043614 58.1586738,29.7438067 L58.0745237,29.4821185 L58.0745237,29.4821185 Z" id="Stroke-7" stroke="#FEFEFE" stroke-width="0.5"></path>
                        <path d="M67.3674947,24.9247367 C69.3286585,21.9895856 70.6937594,19.7121913 71.5913599,17.6964852 C72.3580604,15.9424673 72.6993356,14.8037701 72.6993356,14.1035775 C72.6993356,13.6202795 72.444548,13.3137979 72.1032728,13.3137979 C71.1215221,13.3137979 69.2865834,16.0320542 67.750845,19.8866501 C66.7270193,22.4280901 65.9603188,25.0991954 65.6190436,27.2021309 C66.2151065,26.5019383 66.6428692,25.9762044 67.3674947,24.9247367 M65.3198434,30.0076167 C65.3198434,33.513295 66.2151065,35.4417718 67.8373325,35.4417718 C69.3286585,35.4417718 71.1215221,34.2134877 73.7231613,31.455153 C74.4921993,30.6653734 75.6445875,29.3946534 76.0279378,28.9561489 C76.2406504,28.6496673 76.327138,28.5600803 76.4533631,28.5600803 C76.5819256,28.5600803 76.6240007,28.6496673 76.6240007,28.7816901 C76.6240007,28.8689195 76.6240007,28.9113554 75.8993752,29.7435709 C71.717585,34.5647628 69.2445084,36.4932395 67.112707,36.4932395 C65.1492058,36.4932395 64.0833051,34.6519922 64.0833051,31.3231301 C64.0833051,28.6496673 64.6372929,25.9337685 65.8738312,22.7345718 C67.2810071,18.9672052 68.9873832,15.6359856 70.4810467,13.8395318 C71.2080097,12.9200869 71.8040726,12.5240183 72.4001355,12.5240183 C72.9143858,12.5240183 73.297736,13.0073162 73.297736,13.7523024 C73.297736,15.4167334 72.1453478,18.0454028 69.6699337,22.1216085 C68.9032332,23.3923285 68.561958,23.8732689 67.7087699,25.0567595 C67.2389321,25.7121587 66.7714318,26.3699154 66.6849443,26.5019383 L65.8317562,27.5981995 C65.7896812,27.6406354 65.6611186,27.8174518 65.490481,28.0791399 C65.3619184,28.6944607 65.3198434,29.1754011 65.3198434,30.0076167" id="Fill-9" fill="#FEFEFE"></path>
                        <path d="M67.3674947,24.9247367 C69.3286585,21.9895856 70.6937594,19.7121913 71.5913599,17.6964852 C72.3580604,15.9424673 72.6993356,14.8037701 72.6993356,14.1035775 C72.6993356,13.6202795 72.444548,13.3137979 72.1032728,13.3137979 C71.1215221,13.3137979 69.2865834,16.0320542 67.750845,19.8866501 C66.7270193,22.4280901 65.9603188,25.0991954 65.6190436,27.2021309 C66.2151065,26.5019383 66.6428692,25.9762044 67.3674947,24.9247367 L67.3674947,24.9247367 Z M65.3198434,30.0076167 C65.3198434,33.513295 66.2151065,35.4417718 67.8373325,35.4417718 C69.3286585,35.4417718 71.1215221,34.2134877 73.7231613,31.455153 C74.4921993,30.6653734 75.6445875,29.3946534 76.0279378,28.9561489 C76.2406504,28.6496673 76.327138,28.5600803 76.4533631,28.5600803 C76.5819256,28.5600803 76.6240007,28.6496673 76.6240007,28.7816901 C76.6240007,28.8689195 76.6240007,28.9113554 75.8993752,29.7435709 C71.717585,34.5647628 69.2445084,36.4932395 67.112707,36.4932395 C65.1492058,36.4932395 64.0833051,34.6519922 64.0833051,31.3231301 C64.0833051,28.6496673 64.6372929,25.9337685 65.8738312,22.7345718 C67.2810071,18.9672052 68.9873832,15.6359856 70.4810467,13.8395318 C71.2080097,12.9200869 71.8040726,12.5240183 72.4001355,12.5240183 C72.9143858,12.5240183 73.297736,13.0073162 73.297736,13.7523024 C73.297736,15.4167334 72.1453478,18.0454028 69.6699337,22.1216085 C68.9032332,23.3923285 68.561958,23.8732689 67.7087699,25.0567595 C67.2389321,25.7121587 66.7714318,26.3699154 66.6849443,26.5019383 L65.8317562,27.5981995 C65.7896812,27.6406354 65.6611186,27.8174518 65.490481,28.0791399 C65.3619184,28.6944607 65.3198434,29.1754011 65.3198434,30.0076167 L65.3198434,30.0076167 Z" id="Stroke-11" stroke="#FEFEFE" stroke-width="0.5"></path>
                        <path d="M80.929211,30.0957891 C80.202248,29.7893074 79.9053853,29.5252617 79.9053853,29.2187801 C79.9053853,28.9995278 80.0760229,28.867505 80.3308106,28.867505 C80.7585733,28.867505 81.1419236,29.1739866 81.5673489,29.9189727 C82.2498993,30.1830184 82.7197371,30.2278119 83.3181375,30.2278119 C84.6388258,30.2278119 85.7491391,29.744514 86.6864772,28.6930462 C86.8150397,28.5185874 86.9015273,28.473794 86.9856774,28.473794 C87.0721649,28.473794 87.156315,28.5610233 87.156315,28.6506103 C87.156315,28.7802756 86.9436023,29.0443213 86.6023271,29.3508029 C85.6205765,30.2278119 84.6388258,30.6215229 83.3181375,30.6215229 C82.8062247,30.6215229 82.4228744,30.5767295 81.740324,30.4022707 C81.824474,30.9303621 81.824474,31.1048209 81.824474,31.4113025 C81.824474,34.0824078 79.3513974,36.8878936 77.0045459,36.8878936 C75.2981698,36.8878936 74.0616315,35.4427148 74.0616315,33.556674 C74.0616315,30.1830184 77.3458211,26.5453172 80.4172981,26.5453172 C81.2260736,26.5453172 81.9086241,26.7645695 81.9086241,27.0286152 C81.9086241,27.1582805 81.782399,27.2926609 81.6117614,27.4671197 C81.4411238,27.6415784 81.3546362,27.6863719 81.2704862,27.6863719 C81.1839986,27.6863719 81.1419236,27.6863719 81.013361,27.596785 C80.4593731,27.2926609 80.2887355,27.2478674 79.8609728,27.2478674 C77.4720462,27.2478674 75.2981698,29.7893074 75.2981698,32.5947931 C75.2981698,34.3016601 76.3640705,35.5723801 77.8133214,35.5723801 C79.7347477,35.5723801 81.3990488,33.6462609 81.3990488,31.4113025 C81.3990488,31.0175915 81.3990488,30.7511882 81.2704862,30.2702478 C81.0998486,30.1830184 81.013361,30.1405825 80.929211,30.0957891" id="Fill-13" fill="#FEFEFE"></path>
                        <path d="M80.929211,30.0957891 C80.202248,29.7893074 79.9053853,29.5252617 79.9053853,29.2187801 C79.9053853,28.9995278 80.0760229,28.867505 80.3308106,28.867505 C80.7585733,28.867505 81.1419236,29.1739866 81.5673489,29.9189727 C82.2498993,30.1830184 82.7197371,30.2278119 83.3181375,30.2278119 C84.6388258,30.2278119 85.7491391,29.744514 86.6864772,28.6930462 C86.8150397,28.5185874 86.9015273,28.473794 86.9856774,28.473794 C87.0721649,28.473794 87.156315,28.5610233 87.156315,28.6506103 C87.156315,28.7802756 86.9436023,29.0443213 86.6023271,29.3508029 C85.6205765,30.2278119 84.6388258,30.6215229 83.3181375,30.6215229 C82.8062247,30.6215229 82.4228744,30.5767295 81.740324,30.4022707 C81.824474,30.9303621 81.824474,31.1048209 81.824474,31.4113025 C81.824474,34.0824078 79.3513974,36.8878936 77.0045459,36.8878936 C75.2981698,36.8878936 74.0616315,35.4427148 74.0616315,33.556674 C74.0616315,30.1830184 77.3458211,26.5453172 80.4172981,26.5453172 C81.2260736,26.5453172 81.9086241,26.7645695 81.9086241,27.0286152 C81.9086241,27.1582805 81.782399,27.2926609 81.6117614,27.4671197 C81.4411238,27.6415784 81.3546362,27.6863719 81.2704862,27.6863719 C81.1839986,27.6863719 81.1419236,27.6863719 81.013361,27.596785 C80.4593731,27.2926609 80.2887355,27.2478674 79.8609728,27.2478674 C77.4720462,27.2478674 75.2981698,29.7893074 75.2981698,32.5947931 C75.2981698,34.3016601 76.3640705,35.5723801 77.8133214,35.5723801 C79.7347477,35.5723801 81.3990488,33.6462609 81.3990488,31.4113025 C81.3990488,31.0175915 81.3990488,30.7511882 81.2704862,30.2702478 C81.0998486,30.1830184 81.013361,30.1405825 80.929211,30.0957891 L80.929211,30.0957891 Z" id="Stroke-15" stroke="#FEFEFE" stroke-width="0.5"></path>
                        <path d="M87.4075964,29.2623948 C86.2131331,31.3676878 85.6591453,32.900096 85.6591453,34.0387931 C85.6591453,34.7837793 85.9583454,35.1798478 86.5544083,35.1798478 C87.3234463,35.1798478 88.4758346,34.5197336 89.8830105,33.3386005 C91.6735366,31.7613989 93.1227876,30.2714266 94.6608636,28.3429499 L95.5561266,28.5174087 C94.1045382,31.3676878 93.5505503,32.9448895 93.5505503,34.1260225 C93.5505503,34.7837793 93.8497505,35.2222838 94.3195883,35.2222838 C95.5140516,35.2222838 98.0315407,33.2490136 101.313393,29.7456927 C102.423706,28.5622021 102.339556,28.604638 102.465781,28.604638 C102.552269,28.604638 102.638756,28.694225 102.638756,28.8238903 C102.638756,28.9559131 102.381631,29.2176013 101.229243,30.4458854 C99.2236665,32.5511784 98.1156908,33.6026462 97.0918651,34.3452748 C95.6846892,35.441536 94.532301,35.9672699 93.6814504,35.9672699 C92.9100749,35.9672699 92.3560871,35.2222838 92.3560871,34.170816 C92.3560871,33.2065776 92.5711372,32.1999033 93.1672001,30.7971605 C92.9965625,30.9291833 92.9100749,31.0612062 92.8679999,31.0612062 L91.5893866,32.3743621 C89.3710976,34.6093205 87.2369588,35.9224764 85.7877078,35.9224764 C84.9345198,35.9224764 84.422607,35.3095131 84.422607,34.2580454 C84.422607,32.506385 85.6591453,29.6561058 87.6647215,26.940207 C88.2607844,26.7209548 88.6020597,26.6337254 89.1139725,26.6337254 C88.5179096,27.423505 88.0480718,28.0812617 87.4075964,29.2623948" id="Fill-17" fill="#FEFEFE"></path>
                        <path d="M87.4075964,29.2623948 C86.2131331,31.3676878 85.6591453,32.900096 85.6591453,34.0387931 C85.6591453,34.7837793 85.9583454,35.1798478 86.5544083,35.1798478 C87.3234463,35.1798478 88.4758346,34.5197336 89.8830105,33.3386005 C91.6735366,31.7613989 93.1227876,30.2714266 94.6608636,28.3429499 L95.5561266,28.5174087 C94.1045382,31.3676878 93.5505503,32.9448895 93.5505503,34.1260225 C93.5505503,34.7837793 93.8497505,35.2222838 94.3195883,35.2222838 C95.5140516,35.2222838 98.0315407,33.2490136 101.313393,29.7456927 C102.423706,28.5622021 102.339556,28.604638 102.465781,28.604638 C102.552269,28.604638 102.638756,28.694225 102.638756,28.8238903 C102.638756,28.9559131 102.381631,29.2176013 101.229243,30.4458854 C99.2236665,32.5511784 98.1156908,33.6026462 97.0918651,34.3452748 C95.6846892,35.441536 94.532301,35.9672699 93.6814504,35.9672699 C92.9100749,35.9672699 92.3560871,35.2222838 92.3560871,34.170816 C92.3560871,33.2065776 92.5711372,32.1999033 93.1672001,30.7971605 C92.9965625,30.9291833 92.9100749,31.0612062 92.8679999,31.0612062 L91.5893866,32.3743621 C89.3710976,34.6093205 87.2369588,35.9224764 85.7877078,35.9224764 C84.9345198,35.9224764 84.422607,35.3095131 84.422607,34.2580454 C84.422607,32.506385 85.6591453,29.6561058 87.6647215,26.940207 C88.2607844,26.7209548 88.6020597,26.6337254 89.1139725,26.6337254 C88.5179096,27.423505 88.0480718,28.0812617 87.4075964,29.2623948 L87.4075964,29.2623948 Z" id="Stroke-19" stroke="#FEFEFE" stroke-width="0.5"></path>
                        <path d="M112.656586,28.7812186 C112.869299,28.5171729 112.911374,28.474737 112.997862,28.474737 C113.124087,28.474737 113.210574,28.5619664 113.210574,28.6491958 C113.210574,28.7812186 113.168499,28.868448 112.955787,29.0877002 C112.869299,29.1301362 112.612174,29.4389753 112.228824,29.9199158 C108.477134,34.2578096 105.915232,35.9222407 102.846093,36.0542635 C102.673117,36.099057 102.50248,36.1414929 102.41833,36.1414929 C101.480992,36.3607451 101.310354,36.3607451 100.882591,36.3607451 C99.646053,36.3607451 98.7507899,35.9670341 98.7507899,35.4413002 C98.7507899,35.1348186 98.9635026,34.9155664 99.3047778,34.9155664 C99.4730779,34.9155664 99.7302031,35.0051533 100.200041,35.1348186 C101.310354,35.5285296 101.693704,35.615759 102.289767,35.6605525 C103.783431,35.2668415 104.893744,33.6448464 104.893744,31.803599 C104.893744,30.6201084 104.678694,30.0071451 103.654868,28.2979207 L103.355668,27.8169802 C103.10088,28.1234619 102.930243,28.2979207 102.846093,28.4299435 L102.289767,29.0877002 C102.11913,29.262159 101.992905,29.3493884 101.906417,29.3493884 C101.780192,29.3493884 101.735779,29.3069525 101.735779,29.1749296 C101.735779,29.0877002 101.780192,28.9556774 102.077055,28.6491958 C102.331842,28.3875076 102.673117,28.0362325 103.01673,27.597728 L103.145293,27.4232692 C102.972318,26.9399713 102.930243,26.720719 102.930243,26.4142374 C102.930243,25.539586 103.484231,24.7498064 104.080293,24.7498064 C104.423906,24.7498064 104.636619,24.9690586 104.636619,25.4075631 C104.636619,25.8460676 104.381831,26.4142374 103.951731,26.8975353 L103.783431,27.1592235 C103.741356,27.204017 103.741356,27.2488104 103.741356,27.2912464 C103.741356,27.3360398 103.741356,27.3784758 103.825506,27.4657051 L103.911993,27.597728 C104.038218,27.7297509 104.166781,27.9042096 104.337419,28.1234619 C105.831082,29.7878929 106.172357,30.532879 106.172357,31.8908284 C106.172357,33.3808007 105.531882,34.4322684 103.867581,35.5733231 C106.38507,35.1348186 109.412134,32.7678374 112.656586,28.7812186" id="Fill-21" fill="#FEFEFE"></path>
                        <path d="M112.656586,28.7812186 C112.869299,28.5171729 112.911374,28.474737 112.997862,28.474737 C113.124087,28.474737 113.210574,28.5619664 113.210574,28.6491958 C113.210574,28.7812186 113.168499,28.868448 112.955787,29.0877002 C112.869299,29.1301362 112.612174,29.4389753 112.228824,29.9199158 C108.477134,34.2578096 105.915232,35.9222407 102.846093,36.0542635 C102.673117,36.099057 102.50248,36.1414929 102.41833,36.1414929 C101.480992,36.3607451 101.310354,36.3607451 100.882591,36.3607451 C99.646053,36.3607451 98.7507899,35.9670341 98.7507899,35.4413002 C98.7507899,35.1348186 98.9635026,34.9155664 99.3047778,34.9155664 C99.4730779,34.9155664 99.7302031,35.0051533 100.200041,35.1348186 C101.310354,35.5285296 101.693704,35.615759 102.289767,35.6605525 C103.783431,35.2668415 104.893744,33.6448464 104.893744,31.803599 C104.893744,30.6201084 104.678694,30.0071451 103.654868,28.2979207 L103.355668,27.8169802 C103.10088,28.1234619 102.930243,28.2979207 102.846093,28.4299435 L102.289767,29.0877002 C102.11913,29.262159 101.992905,29.3493884 101.906417,29.3493884 C101.780192,29.3493884 101.735779,29.3069525 101.735779,29.1749296 C101.735779,29.0877002 101.780192,28.9556774 102.077055,28.6491958 C102.331842,28.3875076 102.673117,28.0362325 103.01673,27.597728 L103.145293,27.4232692 C102.972318,26.9399713 102.930243,26.720719 102.930243,26.4142374 C102.930243,25.539586 103.484231,24.7498064 104.080293,24.7498064 C104.423906,24.7498064 104.636619,24.9690586 104.636619,25.4075631 C104.636619,25.8460676 104.381831,26.4142374 103.951731,26.8975353 L103.783431,27.1592235 C103.741356,27.204017 103.741356,27.2488104 103.741356,27.2912464 C103.741356,27.3360398 103.741356,27.3784758 103.825506,27.4657051 L103.911993,27.597728 C104.038218,27.7297509 104.166781,27.9042096 104.337419,28.1234619 C105.831082,29.7878929 106.172357,30.532879 106.172357,31.8908284 C106.172357,33.3808007 105.531882,34.4322684 103.867581,35.5733231 C106.38507,35.1348186 109.412134,32.7678374 112.656586,28.7812186 L112.656586,28.7812186 Z" id="Stroke-23" stroke="#FEFEFE" stroke-width="0.5"></path>
                        <path d="M112.524284,31.0604989 C114.700498,31.0604989 117.302137,29.0872287 117.302137,27.4675912 C117.302137,26.8522704 116.958524,26.5905822 116.320386,26.5905822 C115.467198,26.5905822 114.272735,27.3355683 113.120347,28.6510818 C112.568696,29.2616875 112.269496,29.8322149 111.755246,30.9732696 C112.096521,31.0157055 112.269496,31.0604989 112.524284,31.0604989 M111.287746,33.0738475 C111.287746,34.5213838 112.269496,35.5728516 113.634597,35.5728516 C115.553686,35.5728516 118.026762,33.7339618 121.61249,29.6129626 L122.122065,29.0447928 C122.250628,28.91277 122.37919,28.7807471 122.418928,28.6935177 C122.54749,28.5167014 122.633978,28.4742655 122.718128,28.4742655 C122.802278,28.4742655 122.891103,28.5614949 122.891103,28.6935177 C122.891103,28.7807471 122.802278,28.91277 122.16414,29.6577561 C119.688726,32.4632418 118.452188,33.6891683 116.874374,34.9150949 C115.298898,36.1410214 113.805235,36.8435716 112.736996,36.8435716 C111.11477,36.8435716 110.006795,35.660081 110.006795,33.953214 C110.006795,32.9441822 110.34807,31.847921 111.03062,30.6196369 C112.479871,28.035761 115.125923,25.8903896 116.832299,25.8903896 C117.685487,25.8903896 118.1974,26.3265365 118.1974,27.0290867 C118.1974,29.0872287 115.083848,31.45421 112.440134,31.45421 C112.183009,31.45421 112.010034,31.45421 111.586946,31.4094165 C111.371896,32.1991961 111.287746,32.5504712 111.287746,33.0738475" id="Fill-25" fill="#FEFEFE"></path>
                        <path d="M112.524284,31.0604989 C114.700498,31.0604989 117.302137,29.0872287 117.302137,27.4675912 C117.302137,26.8522704 116.958524,26.5905822 116.320386,26.5905822 C115.467198,26.5905822 114.272735,27.3355683 113.120347,28.6510818 C112.568696,29.2616875 112.269496,29.8322149 111.755246,30.9732696 C112.096521,31.0157055 112.269496,31.0604989 112.524284,31.0604989 L112.524284,31.0604989 Z M111.287746,33.0738475 C111.287746,34.5213838 112.269496,35.5728516 113.634597,35.5728516 C115.553686,35.5728516 118.026762,33.7339618 121.61249,29.6129626 L122.122065,29.0447928 C122.250628,28.91277 122.37919,28.7807471 122.418928,28.6935177 C122.54749,28.5167014 122.633978,28.4742655 122.718128,28.4742655 C122.802278,28.4742655 122.891103,28.5614949 122.891103,28.6935177 C122.891103,28.7807471 122.802278,28.91277 122.16414,29.6577561 C119.688726,32.4632418 118.452188,33.6891683 116.874374,34.9150949 C115.298898,36.1410214 113.805235,36.8435716 112.736996,36.8435716 C111.11477,36.8435716 110.006795,35.660081 110.006795,33.953214 C110.006795,32.9441822 110.34807,31.847921 111.03062,30.6196369 C112.479871,28.035761 115.125923,25.8903896 116.832299,25.8903896 C117.685487,25.8903896 118.1974,26.3265365 118.1974,27.0290867 C118.1974,29.0872287 115.083848,31.45421 112.440134,31.45421 C112.183009,31.45421 112.010034,31.45421 111.586946,31.4094165 C111.371896,32.1991961 111.287746,32.5504712 111.287746,33.0738475 L111.287746,33.0738475 Z" id="Stroke-27" stroke="#FEFEFE" stroke-width="0.5"></path>
                        <path d="M146.144101,35.32413 L145.46155,35.8074279 C144.907562,36.2883683 144.054374,37.0333544 143.458311,37.6463177 L143.369486,37.7335471 C143.114699,37.6911112 142.986136,37.5590883 142.986136,37.429423 C142.986136,37.2101708 143.369486,36.6396434 143.928149,36.0691161 C144.566287,35.3689234 145.164687,34.9752124 145.6766,34.9752124 C145.889313,34.9752124 146.099688,35.0624418 146.314738,35.1496712 C146.228251,35.2369006 146.144101,35.32413 146.144101,35.32413 L146.144101,35.32413 Z M142.647198,40.5390328 C140.681359,43.6934361 139.916997,45.5346834 139.916997,46.9798622 C139.916997,47.7248483 140.213859,48.1185593 140.814597,48.1185593 C142.305923,48.1185593 145.375063,45.7539357 148.490952,42.2482573 C149.005202,41.67773 149.005202,41.635294 149.173502,41.635294 C149.25999,41.635294 149.339465,41.7225234 149.339465,41.8545463 C149.339465,41.9417757 149.339465,41.9417757 148.278239,43.1252663 C144.779,46.8902753 141.70986,49.1252336 139.998809,49.1252336 C139.063808,49.1252336 138.507483,48.4698344 138.507483,47.4183667 C138.507483,46.1476467 139.063808,44.5256516 140.213859,42.4227161 C140.681359,41.5905006 141.069385,40.9751798 141.41066,40.5390328 C142.048798,40.3197806 142.305923,40.2773447 142.817836,40.2325512 L142.647198,40.5390328 Z" id="Fill-29" fill="#FEFEFE"></path>
                        <path d="M146.144101,35.32413 L145.46155,35.8074279 C144.907562,36.2883683 144.054374,37.0333544 143.458311,37.6463177 L143.369486,37.7335471 C143.114699,37.6911112 142.986136,37.5590883 142.986136,37.429423 C142.986136,37.2101708 143.369486,36.6396434 143.928149,36.0691161 C144.566287,35.3689234 145.164687,34.9752124 145.6766,34.9752124 C145.889313,34.9752124 146.099688,35.0624418 146.314738,35.1496712 C146.228251,35.2369006 146.144101,35.32413 146.144101,35.32413 L146.144101,35.32413 Z M142.647198,40.5390328 C140.681359,43.6934361 139.916997,45.5346834 139.916997,46.9798622 C139.916997,47.7248483 140.213859,48.1185593 140.814597,48.1185593 C142.305923,48.1185593 145.375063,45.7539357 148.490952,42.2482573 C149.005202,41.67773 149.005202,41.635294 149.173502,41.635294 C149.25999,41.635294 149.339465,41.7225234 149.339465,41.8545463 C149.339465,41.9417757 149.339465,41.9417757 148.278239,43.1252663 C144.779,46.8902753 141.70986,49.1252336 139.998809,49.1252336 C139.063808,49.1252336 138.507483,48.4698344 138.507483,47.4183667 C138.507483,46.1476467 139.063808,44.5256516 140.213859,42.4227161 C140.681359,41.5905006 141.069385,40.9751798 141.41066,40.5390328 C142.048798,40.3197806 142.305923,40.2773447 142.817836,40.2325512 L142.647198,40.5390328 L142.647198,40.5390328 Z" id="Stroke-31" stroke="#FEFEFE" stroke-width="0.5"></path>
                        <path d="M149.212071,44.0430609 C151.385948,44.0430609 153.989924,42.0721482 153.989924,40.4525107 C153.989924,39.8371899 153.648649,39.5731442 153.008174,39.5731442 C152.154986,39.5731442 150.96286,40.3204878 149.808134,41.6360013 C149.256484,42.246607 148.959621,42.8171344 148.443033,43.9558315 C148.784308,43.9982674 148.959621,44.0430609 149.212071,44.0430609 M147.975533,46.058767 C147.975533,47.5063033 148.959621,48.5577711 150.324722,48.5577711 C152.241473,48.5577711 154.71455,46.7165238 158.300277,42.5978821 L158.809852,42.0297123 C158.938415,41.8976895 159.066978,41.7656666 159.106715,41.6784372 C159.235278,41.5039784 159.321765,41.459185 159.408253,41.459185 C159.492403,41.459185 159.576553,41.5464144 159.576553,41.6784372 C159.576553,41.7656666 159.492403,41.8976895 158.854265,42.640318 C156.378851,45.4458038 155.142313,46.6717303 153.564499,47.9000144 C151.986686,49.1259409 150.493022,49.8284911 149.427121,49.8284911 C147.80022,49.8284911 146.69692,48.6450005 146.69692,46.9381336 C146.69692,45.9291017 147.035857,44.8328405 147.720745,43.6045564 C149.167659,41.0206805 151.816048,38.8753091 153.522424,38.8753091 C154.373275,38.8753091 154.887525,39.311456 154.887525,40.0140062 C154.887525,42.0721482 151.771635,44.4391295 149.125584,44.4391295 C148.870796,44.4391295 148.700158,44.4391295 148.274733,44.394336 C148.062021,45.181758 147.975533,45.5353907 147.975533,46.058767" id="Fill-33" fill="#FEFEFE"></path>
                        <path d="M149.212071,44.0430609 C151.385948,44.0430609 153.989924,42.0721482 153.989924,40.4525107 C153.989924,39.8371899 153.648649,39.5731442 153.008174,39.5731442 C152.154986,39.5731442 150.96286,40.3204878 149.808134,41.6360013 C149.256484,42.246607 148.959621,42.8171344 148.443033,43.9558315 C148.784308,43.9982674 148.959621,44.0430609 149.212071,44.0430609 L149.212071,44.0430609 Z M147.975533,46.058767 C147.975533,47.5063033 148.959621,48.5577711 150.324722,48.5577711 C152.241473,48.5577711 154.71455,46.7165238 158.300277,42.5978821 L158.809852,42.0297123 C158.938415,41.8976895 159.066978,41.7656666 159.106715,41.6784372 C159.235278,41.5039784 159.321765,41.459185 159.408253,41.459185 C159.492403,41.459185 159.576553,41.5464144 159.576553,41.6784372 C159.576553,41.7656666 159.492403,41.8976895 158.854265,42.640318 C156.378851,45.4458038 155.142313,46.6717303 153.564499,47.9000144 C151.986686,49.1259409 150.493022,49.8284911 149.427121,49.8284911 C147.80022,49.8284911 146.69692,48.6450005 146.69692,46.9381336 C146.69692,45.9291017 147.035857,44.8328405 147.720745,43.6045564 C149.167659,41.0206805 151.816048,38.8753091 153.522424,38.8753091 C154.373275,38.8753091 154.887525,39.311456 154.887525,40.0140062 C154.887525,42.0721482 151.771635,44.4391295 149.125584,44.4391295 C148.870796,44.4391295 148.700158,44.4391295 148.274733,44.394336 C148.062021,45.181758 147.975533,45.5353907 147.975533,46.058767 L147.975533,46.058767 Z" id="Stroke-35" stroke="#FEFEFE" stroke-width="0.5"></path>
                        <path d="M171.945676,42.9932434 C172.712376,42.9932434 173.439339,42.5971749 174.163965,41.7649593 C174.292527,41.635294 174.379015,41.5905006 174.463165,41.5905006 C174.544978,41.5905006 174.675878,41.67773 174.675878,41.7649593 C174.675878,41.8969822 174.332265,42.2482573 173.909177,42.6419683 C173.226627,43.2124957 172.630564,43.4317479 171.903601,43.4317479 C171.218713,43.4317479 170.751213,43.2549316 170.152812,42.7739912 C168.874199,46.3668989 166.401122,48.9955683 164.353471,48.9955683 C163.116933,48.9955683 162.38997,47.9865365 162.22167,46.2348761 C160.473219,48.1609953 159.23668,48.9955683 157.997804,48.9955683 C157.013716,48.9955683 156.331166,48.2057887 156.331166,47.1118851 C156.331166,45.0961789 157.743017,42.3779226 160.043118,39.8364826 L160.213756,39.6172304 C160.683594,39.4875651 161.153431,39.4003357 161.791569,39.3555422 C159.05903,42.3779226 157.570042,45.0961789 157.570042,46.9374263 C157.570042,47.6376189 158.037542,48.1609953 158.678017,48.1609953 C159.701843,48.1609953 161.281994,46.9374263 162.17492,45.4450965 L162.22167,45.2258442 C162.518532,43.6486426 162.731245,43.0380369 163.329645,42.1586704 C163.715333,41.5905006 164.054271,41.3288124 164.353471,41.3288124 C164.608259,41.3288124 164.776559,41.5032712 164.776559,41.7649593 C164.776559,42.3354867 164.395546,43.1252663 163.458208,44.4832157 L163.20342,44.8769267 L163.20342,45.4922475 C163.20342,47.1118851 163.881296,48.1609953 164.865384,48.1609953 C166.65591,48.1609953 168.916274,45.5346834 169.811537,42.3779226 C169.470262,41.5905006 169.344037,40.9327438 169.344037,40.2773447 C169.344037,39.4427716 169.559087,38.8746018 169.900362,38.8746018 C170.283712,38.8746018 170.5385,39.4875651 170.5385,40.4518034 C170.5385,40.9775373 170.452012,41.5480647 170.283712,42.2482573 C170.833025,42.7739912 171.307538,42.9932434 171.945676,42.9932434" id="Fill-37" fill="#FEFEFE"></path>
                        <path d="M171.945676,42.9932434 C172.712376,42.9932434 173.439339,42.5971749 174.163965,41.7649593 C174.292527,41.635294 174.379015,41.5905006 174.463165,41.5905006 C174.544978,41.5905006 174.675878,41.67773 174.675878,41.7649593 C174.675878,41.8969822 174.332265,42.2482573 173.909177,42.6419683 C173.226627,43.2124957 172.630564,43.4317479 171.903601,43.4317479 C171.218713,43.4317479 170.751213,43.2549316 170.152812,42.7739912 C168.874199,46.3668989 166.401122,48.9955683 164.353471,48.9955683 C163.116933,48.9955683 162.38997,47.9865365 162.22167,46.2348761 C160.473219,48.1609953 159.23668,48.9955683 157.997804,48.9955683 C157.013716,48.9955683 156.331166,48.2057887 156.331166,47.1118851 C156.331166,45.0961789 157.743017,42.3779226 160.043118,39.8364826 L160.213756,39.6172304 C160.683594,39.4875651 161.153431,39.4003357 161.791569,39.3555422 C159.05903,42.3779226 157.570042,45.0961789 157.570042,46.9374263 C157.570042,47.6376189 158.037542,48.1609953 158.678017,48.1609953 C159.701843,48.1609953 161.281994,46.9374263 162.17492,45.4450965 L162.22167,45.2258442 C162.518532,43.6486426 162.731245,43.0380369 163.329645,42.1586704 C163.715333,41.5905006 164.054271,41.3288124 164.353471,41.3288124 C164.608259,41.3288124 164.776559,41.5032712 164.776559,41.7649593 C164.776559,42.3354867 164.395546,43.1252663 163.458208,44.4832157 L163.20342,44.8769267 L163.20342,45.4922475 C163.20342,47.1118851 163.881296,48.1609953 164.865384,48.1609953 C166.65591,48.1609953 168.916274,45.5346834 169.811537,42.3779226 C169.470262,41.5905006 169.344037,40.9327438 169.344037,40.2773447 C169.344037,39.4427716 169.559087,38.8746018 169.900362,38.8746018 C170.283712,38.8746018 170.5385,39.4875651 170.5385,40.4518034 C170.5385,40.9775373 170.452012,41.5480647 170.283712,42.2482573 C170.833025,42.7739912 171.307538,42.9932434 171.945676,42.9932434 L171.945676,42.9932434 Z" id="Stroke-39" stroke="#FEFEFE" stroke-width="0.5"></path>
                        <path d="M124.949039,9.74564441 C127.036428,9.74564441 128.735792,11.4147905 129.97233,14.7507252 C131.211206,18.1644591 132.062056,24.282304 132.062056,30.1573211 C132.062056,33.8138828 131.748831,37.2276167 131.134068,41.358046 C131.594556,40.6413505 131.517419,40.8040216 133.064845,37.7839987 C134.841346,34.4504216 138.632773,28.650846 141.645813,24.7561718 C145.818253,19.3573799 148.910767,16.0992444 153.31462,12.4473979 C159.111624,7.44231706 164.910965,3.79047053 170.630831,1.48478563 C172.636408,0.612491755 173.643871,0.294222367 174.338109,0.294222367 C175.114159,0.294222367 175.574647,0.690290939 175.574647,1.24903053 C175.574647,1.48478563 175.420372,2.04116767 175.186622,2.67770645 C175.186622,2.75550563 175.114159,2.99597584 174.959884,3.23173094 C168.847318,3.94842645 160.271025,8.31696849 153.008407,14.3522991 C143.574251,22.1369326 134.301383,35.0846028 129.97233,46.2051709 L129.509505,47.3957342 C129.123817,48.3481848 128.892404,49.0648803 128.735792,49.4609489 C128.039216,52.0801881 127.501591,52.7968836 126.419328,52.7968836 C126.031303,52.7968836 125.720415,52.7167269 125.026177,52.5587709 C127.964416,46.2051709 129.35523,39.6888999 129.35523,31.9867807 C129.35523,27.3777685 128.660992,21.5003938 127.653529,17.928704 C126.571265,13.7181179 124.871902,11.3346338 123.095401,11.3346338 C121.239424,11.3346338 118.532598,13.3998485 115.056733,17.2921652 L114.745845,16.5754697 C118.68921,12.0513293 122.167413,9.74564441 124.949039,9.74564441" id="Fill-41" fill="#FEFEFE"></path>
                        <path d="M124.949039,9.74564441 C127.036428,9.74564441 128.735792,11.4147905 129.97233,14.7507252 C131.211206,18.1644591 132.062056,24.282304 132.062056,30.1573211 C132.062056,33.8138828 131.748831,37.2276167 131.134068,41.358046 C131.594556,40.6413505 131.517419,40.8040216 133.064845,37.7839987 C134.841346,34.4504216 138.632773,28.650846 141.645813,24.7561718 C145.818253,19.3573799 148.910767,16.0992444 153.31462,12.4473979 C159.111624,7.44231706 164.910965,3.79047053 170.630831,1.48478563 C172.636408,0.612491755 173.643871,0.294222367 174.338109,0.294222367 C175.114159,0.294222367 175.574647,0.690290939 175.574647,1.24903053 C175.574647,1.48478563 175.420372,2.04116767 175.186622,2.67770645 C175.186622,2.75550563 175.114159,2.99597584 174.959884,3.23173094 C168.847318,3.94842645 160.271025,8.31696849 153.008407,14.3522991 C143.574251,22.1369326 134.301383,35.0846028 129.97233,46.2051709 L129.509505,47.3957342 C129.123817,48.3481848 128.892404,49.0648803 128.735792,49.4609489 C128.039216,52.0801881 127.501591,52.7968836 126.419328,52.7968836 C126.031303,52.7968836 125.720415,52.7167269 125.026177,52.5587709 C127.964416,46.2051709 129.35523,39.6888999 129.35523,31.9867807 C129.35523,27.3777685 128.660992,21.5003938 127.653529,17.928704 C126.571265,13.7181179 124.871902,11.3346338 123.095401,11.3346338 C121.239424,11.3346338 118.532598,13.3998485 115.056733,17.2921652 L114.745845,16.5754697 C118.68921,12.0513293 122.167413,9.74564441 124.949039,9.74564441 L124.949039,9.74564441 Z" id="Stroke-43" stroke="#FEFEFE" stroke-width="0.5"></path>
                    </g>
                </g>
            </g>
        </g>
    </g>
</svg>