<?xml version="1.0" encoding="utf-8"?>
<!-- Generator: Adobe Illustrator 21.0.0, SVG Export Plug-In . SVG Version: 6.00 Build 0)  -->
<svg version="1.1" id="Layer_1" xmlns="http://www.w3.org/2000/svg" xmlns:xlink="http://www.w3.org/1999/xlink" x="0px" y="0px"
	 viewBox="0 0 105 61.2" style="enable-background:new 0 0 105 61.2;" xml:space="preserve">
<style type="text/css">
	.st0{opacity:0.74;fill:#A0BED8;stroke:#76A7CA;stroke-width:0.9929;enable-background:new    ;}
	.st1{opacity:0.7;}
	.st2{fill:#DBE7BF;}
	.st3{fill:#636165;stroke:#636165;stroke-width:0.25;}
</style>
<ellipse class="st0" cx="52.3" cy="30.6" rx="45" ry="28.3"/>
<g class="st1">
	
		<image style="overflow:visible;opacity:0.75;enable-background:new    ;" width="462" height="194" xlink:href="5555D4776DFF96A9.png"  transform="matrix(0.2039 0 0 0.1993 7.9429 8.5267)">
	</image>
	<g>
		<path class="st2" d="M11.5,36.8c57.8-15,113,17.4,59.2-14.3C16.8-9.2,11.5,36.8,11.5,36.8z"/>
	</g>
</g>
<g>
	<path class="st3" d="M23.5,29.4c-1.3,3-2,4.4-3,6c-1.2,1.8-2.2,2.8-3,2.8c-0.5,0-0.8-0.4-0.8-1.2c0-1.7,1.9-5.6,4.8-9.8l0.2-0.3
		c-0.6-1.1-0.9-2.1-0.9-3.1c0-0.5,0.1-0.6,0.6-1.1c0,0.1,0,0.2,0,0.3c0,1.2,0.3,2.2,0.9,3.2l0.2-0.3c0.7-1,1.7-2.3,2.2-2.9l0.7-0.8
		c0,0,0.1-0.1,0.2-0.3c0.3-0.9,0.6-3.5,0.6-4.7c0-0.1,0-0.2,0-0.4c0.1-0.1,0.2-0.1,0.3-0.1h0.1c0.1,0,0.2,0.1,0.2,0.3
		c0,0.1,0,0.2,0,0.2v0.3c-0.1,0.8-0.4,2.1-0.7,3.6L26,21.4c3.3-3.4,6.3-5.2,8.7-5.2c2,0,3.3,1.5,3.3,3.7c0,1.7-0.7,3.7-2.1,5.6
		c-2,2.9-5.1,4.6-8.1,4.6c-1.5,0-2.8-0.3-4.2-1.2L23.5,29.4z M18.6,32.6c-0.9,1.8-1.3,2.8-1.3,3.5c0,0.6,0.3,1,0.7,1
		c1.2,0,3.2-3,5.2-7.9l0.1-0.3c-0.7-0.5-1.1-0.8-1.5-1.6C20.4,29.5,19.5,30.9,18.6,32.6z M23.3,25.4c-0.4,0.5-0.6,0.9-0.8,1.2
		c0.3,0.6,0.7,1,1.3,1.5l0.2-0.6c0.9-2.7,1-2.9,1.5-4.7C24.6,23.6,24.2,24.2,23.3,25.4z M28.4,29.8c4.4,0,8.7-4.4,8.7-9
		c0-2.1-1.3-3.5-3.2-3.5c-2.2,0-5.2,1.8-7.9,4.9c-0.1,0.2-0.1,0.4-0.2,0.4l-0.5,1.6c-0.1,0.5-0.3,1-0.4,1.4l-0.7,2.2L24,28.2
		C25.4,29.3,26.8,29.8,28.4,29.8z"/>
</g>
<g>
	<path class="st3" d="M41.4,26.6c0.5-0.3,0.7-0.6,0.7-0.9c0-0.4-0.4-0.7-1-0.7c-0.9,0-2.2,0.7-2.9,1.5c-0.5,0.6-0.9,1.3-0.9,1.7
		c0,0.4,0.3,0.7,0.7,0.7c0.7,0,1.9-1,2.7-2.4c0.1-0.1,0.2-0.1,0.2-0.1c0.1,0,0.1,0,0.2,0.1c-0.4,0.7-0.7,1.4-0.7,1.9
		c0,0.4,0.2,0.6,0.5,0.6c0.4,0,0.8-0.3,1.6-1c0.4-0.4,1-0.9,1.3-1.3l0.2-0.3c0.2-0.2,0.2-0.3,0.3-0.3c0,0,0.1,0,0.1,0.1
		s0,0.1-0.5,0.6c-1.5,1.6-2.6,2.5-3.3,2.5c-0.4,0-0.7-0.4-0.7-0.9c0-0.2,0-0.4,0.1-0.8l-0.1,0.3c-1,1.1-1.8,1.6-2.4,1.6
		c-0.5,0-0.7-0.3-0.7-0.8c0-0.8,0.8-2,1.9-2.8c0.9-0.7,2-1.1,2.8-1.1s1.2,0.3,1.2,0.8s-0.3,0.9-1,1.2L41.4,26.6z"/>
	<path class="st3" d="M44.5,26.8c0,1.5,0.4,2.3,1.1,2.3c0.6,0,1.4-0.5,2.5-1.7c0.3-0.3,0.8-0.9,1-1.1c0.1-0.1,0.1-0.2,0.2-0.2
		s0.1,0,0.1,0.1c0,0,0,0.1-0.3,0.4c-1.8,2-2.8,2.9-3.8,2.9c-0.8,0-1.3-0.8-1.3-2.2c0-1.1,0.2-2.3,0.8-3.6c0.6-1.6,1.3-3,2-3.8
		c0.3-0.4,0.6-0.6,0.8-0.6s0.4,0.2,0.4,0.5c0,0.7-0.5,1.8-1.6,3.5c-0.3,0.5-0.5,0.7-0.8,1.2c-0.2,0.3-0.4,0.6-0.4,0.6l-0.4,0.5
		c0,0-0.1,0.1-0.1,0.2C44.5,26.2,44.5,26.4,44.5,26.8z M45.4,24.6c0.8-1.2,1.4-2.2,1.8-3.1c0.3-0.7,0.5-1.2,0.5-1.5
		c0-0.2-0.1-0.3-0.3-0.3c-0.4,0-1.2,1.2-1.9,2.8c-0.4,1.1-0.8,2.2-0.9,3.1C44.9,25.3,45.1,25.1,45.4,24.6z"/>
	<path class="st3" d="M51.2,26.8c-0.3-0.1-0.4-0.2-0.4-0.4c0-0.1,0.1-0.1,0.2-0.1c0.2,0,0.3,0.1,0.5,0.4c0.3,0.1,0.5,0.1,0.7,0.1
		c0.6,0,1-0.2,1.4-0.7c0.1-0.1,0.1-0.1,0.1-0.1s0.1,0,0.1,0.1s-0.1,0.2-0.2,0.3c-0.4,0.4-0.8,0.5-1.4,0.5c-0.2,0-0.4,0-0.7-0.1
		c0,0.2,0,0.3,0,0.4c0,1.1-1.1,2.3-2.1,2.3c-0.7,0-1.3-0.6-1.3-1.4c0-1.4,1.4-3,2.7-3c0.3,0,0.6,0.1,0.6,0.2c0,0.1-0.1,0.1-0.1,0.2
		c-0.1,0.1-0.1,0.1-0.1,0.1h-0.1c-0.2-0.1-0.3-0.1-0.5-0.1c-1,0-2,1.1-2,2.3c0,0.7,0.5,1.3,1.1,1.3c0.8,0,1.5-0.8,1.5-1.8
		C51.2,27.1,51.2,27,51.2,26.8C51.3,26.9,51.2,26.8,51.2,26.8z"/>
	<path class="st3" d="M54,26.5c-0.5,0.9-0.7,1.5-0.7,2c0,0.3,0.1,0.5,0.4,0.5c0.3,0,0.8-0.3,1.4-0.8c0.8-0.7,1.4-1.3,2-2.1l0.4,0.1
		c-0.6,1.2-0.9,1.9-0.9,2.4c0,0.3,0.1,0.5,0.3,0.5c0.5,0,1.6-0.8,3-2.3c0.5-0.5,0.4-0.5,0.5-0.5c0,0,0.1,0,0.1,0.1s-0.1,0.2-0.6,0.7
		c-0.9,0.9-1.3,1.3-1.8,1.7c-0.6,0.5-1.1,0.7-1.5,0.7c-0.3,0-0.6-0.3-0.6-0.8c0-0.4,0.1-0.8,0.3-1.4c0-0.1,0-0.1,0-0.1l-0.5,0.6
		c-0.9,0.9-1.9,1.5-2.5,1.5c-0.4,0-0.6-0.3-0.6-0.7c0-0.7,0.5-2,1.4-3.1c0.3-0.1,0.4-0.1,0.6-0.1C54.4,25.7,54.2,26,54,26.5z"/>
	<path class="st3" d="M64.8,26.3C64.9,26.2,64.9,26.2,64.8,26.3c0.2-0.1,0.2-0.1,0.2,0s0,0.1-0.1,0.2c0,0-0.1,0.1-0.3,0.4
		c-1.6,1.8-2.7,2.5-4,2.6c-0.1,0-0.1,0-0.2,0c-0.4,0.1-0.5,0.1-0.7,0.1c-0.5,0-0.9-0.2-0.9-0.4c0-0.1,0.1-0.2,0.2-0.2s0.2,0,0.4,0.1
		c0.5,0.2,0.6,0.2,0.9,0.2c0.6-0.2,1.1-0.9,1.1-1.6c0-0.5-0.1-0.8-0.5-1.5l-0.1-0.3c-0.1,0.1-0.2,0.2-0.2,0.3l-0.3,0.2
		c-0.1,0.1-0.1,0.1-0.2,0.1s-0.1,0-0.1-0.1c0,0,0-0.1,0.1-0.2c0.1-0.1,0.3-0.3,0.4-0.4l0.1-0.1c-0.1-0.2-0.1-0.3-0.1-0.4
		c0-0.4,0.2-0.7,0.5-0.7c0.1,0,0.2,0.1,0.2,0.3s-0.1,0.4-0.3,0.6l-0.1,0.1c0,0,0,0,0,0.1c0,0,0,0,0,0.1v0.1c0.1,0.1,0.1,0.1,0.2,0.2
		c0.6,0.7,0.8,1,0.8,1.6s-0.3,1.1-1,1.6C62.1,29,63.4,28,64.8,26.3z"/>
	<path class="st3" d="M64.2,28.1c0,0.6,0.4,1.1,1,1.1c0.8,0,1.9-0.8,3.4-2.5l0.2-0.2c0.1-0.1,0.1-0.1,0.1-0.1
		c0.1-0.1,0.1-0.1,0.1-0.1s0.1,0,0.1,0.1c0,0,0,0.1-0.3,0.4c-1.1,1.2-1.6,1.7-2.3,2.2c-0.7,0.5-1.3,0.8-1.8,0.8
		c-0.7,0-1.2-0.5-1.2-1.2c0-0.4,0.1-0.9,0.4-1.4c0.6-1.1,1.8-2,2.5-2c0.4,0,0.6,0.2,0.6,0.5c0,0.9-1.3,1.9-2.5,1.9
		c-0.1,0-0.2,0-0.4,0C64.2,27.7,64.2,27.9,64.2,28.1z M64.7,27.2c0.9,0,2-0.8,2-1.5c0-0.3-0.1-0.4-0.4-0.4c-0.4,0-0.9,0.3-1.4,0.9
		c-0.2,0.3-0.4,0.5-0.6,1C64.5,27.2,64.6,27.2,64.7,27.2z"/>
</g>
<g>
	<path class="st3" d="M60.3,47c-0.8,1.3-1.2,2.1-1.2,2.7c0,0.3,0.1,0.5,0.4,0.5c0.6,0,2-1,3.3-2.5c0.2-0.2,0.2-0.3,0.3-0.3
		c0,0,0.1,0,0.1,0.1c0,0,0,0-0.5,0.5c-1.5,1.6-2.8,2.5-3.5,2.5c-0.4,0-0.6-0.3-0.6-0.7c0-0.5,0.2-1.2,0.7-2.1
		c0.2-0.4,0.4-0.6,0.5-0.8C60,46.9,60.1,46.9,60.3,47L60.3,47z M61.8,44.8L61.5,45c-0.2,0.2-0.6,0.5-0.9,0.8l0,0
		c-0.1,0-0.2-0.1-0.2-0.1c0-0.1,0.2-0.3,0.4-0.6c0.3-0.3,0.5-0.5,0.7-0.5C61.7,44.6,61.7,44.7,61.8,44.8L61.8,44.8z"/>
	<path class="st3" d="M62.5,49.3c0,0.6,0.4,1.1,1,1.1c0.8,0,1.9-0.8,3.4-2.5l0.2-0.2c0.1-0.1,0.1-0.1,0.1-0.1
		c0.1-0.1,0.1-0.1,0.1-0.1s0.1,0,0.1,0.1c0,0,0,0.1-0.3,0.4c-1.1,1.2-1.6,1.7-2.3,2.2c-0.5,0.4-1.2,0.7-1.6,0.7
		c-0.7,0-1.2-0.5-1.2-1.2c0-0.4,0.1-0.9,0.4-1.4c0.6-1.1,1.8-2,2.5-2c0.4,0,0.6,0.2,0.6,0.5c0,0.9-1.3,1.9-2.5,1.9
		c-0.1,0-0.2,0-0.4,0C62.6,49,62.5,49.1,62.5,49.3z M63.1,48.5c0.9,0,2-0.8,2-1.5c0-0.3-0.1-0.4-0.4-0.4c-0.4,0-0.9,0.3-1.4,0.9
		c-0.2,0.3-0.4,0.5-0.6,1C62.9,48.5,63,48.5,63.1,48.5z"/>
	<path class="st3" d="M72.8,48c0.3,0,0.6-0.2,0.9-0.5c0.1-0.1,0.1-0.1,0.1-0.1s0.1,0,0.1,0.1s-0.1,0.2-0.3,0.4
		c-0.3,0.2-0.5,0.3-0.9,0.3c-0.3,0-0.5-0.1-0.7-0.3c-0.5,1.5-1.6,2.6-2.5,2.6c-0.5,0-0.8-0.4-0.9-1.2c-0.7,0.8-1.3,1.2-1.8,1.2
		c-0.4,0-0.7-0.3-0.7-0.8c0-0.9,0.6-2,1.6-3.1l0.1-0.1c0.2-0.1,0.4-0.1,0.7-0.1c-1.2,1.3-1.8,2.4-1.8,3.2c0,0.3,0.2,0.5,0.5,0.5
		c0.4,0,1.1-0.5,1.5-1.2v-0.1c0.1-0.7,0.2-0.9,0.5-1.3c0.2-0.2,0.3-0.4,0.4-0.4s0.2,0.1,0.2,0.2c0,0.2-0.2,0.6-0.6,1.2l-0.1,0.2
		c0,0.1,0,0.2,0,0.3c0,0.7,0.3,1.1,0.7,1.1c0.8,0,1.7-1.1,2.1-2.5c-0.1-0.3-0.2-0.6-0.2-0.9c0-0.4,0.1-0.6,0.2-0.6
		c0.2,0,0.3,0.3,0.3,0.7c0,0.2,0,0.5-0.1,0.8C72.3,47.9,72.5,48,72.8,48z"/>
</g>
<g>
	<path class="st3" d="M52.7,33.9c0.9,0,1.6,0.7,2.1,2.1s0.9,4,0.9,6.5c0,1.6-0.1,3-0.4,4.8c0.2-0.3,0.2-0.2,0.8-1.5
		c0.8-1.4,2.4-3.9,3.7-5.5c1.8-2.3,3.1-3.7,5-5.2c2.5-2.1,5-3.7,7.4-4.6c0.9-0.4,1.3-0.5,1.6-0.5c0.3,0,0.5,0.2,0.5,0.4
		c0,0.1-0.1,0.3-0.2,0.6c0,0,0,0.1-0.1,0.2c-2.6,0.3-6.3,2.2-9.4,4.7c-4,3.3-8,8.8-9.9,13.5l-0.1,0.5c-0.2,0.4-0.3,0.7-0.3,0.9
		c-0.3,1.1-0.5,1.4-1,1.4c-0.2,0-0.3,0-0.6-0.1c1.3-2.7,1.9-5.5,1.9-8.7c0-2-0.3-4.4-0.7-6c-0.5-1.8-1.2-2.8-2-2.8s-2,0.9-3.4,2.5
		l-0.2-0.3C50,34.9,51.5,33.9,52.7,33.9z"/>
</g>
</svg>
