<?xml version="1.0" encoding="UTF-8"?>
<svg width="151px" height="36px" viewBox="0 0 151 36" version="1.1" xmlns="http://www.w3.org/2000/svg" xmlns:xlink="http://www.w3.org/1999/xlink">
    <!-- Generator: Sketch 40.3 (33839) - http://www.bohemiancoding.com/sketch -->
    <title>Logo Group</title>
    <desc>Created with Sketch.</desc>
    <defs></defs>
    <g id="Page-1" stroke="none" stroke-width="1" fill="none" fill-rule="evenodd">
        <g id="iPhone-SE" transform="translate(-13.000000, -7.000000)">
            <g id="Logo-Group" transform="translate(13.000000, 7.000000)">
                <path d="M150.58658,2.71428571 L150.58658,32.8834568" id="Line" stroke="#FFFFFF" stroke-width="0.8" stroke-linecap="square"></path>
                <g id="Page-1">
                    <path d="M17.6642027,23.4180754 C24.3050941,23.4180754 30.6482079,16.8382746 30.6482079,9.95472196 C30.6482079,6.86657829 28.6999337,4.74031543 25.8029608,4.74031543 C22.5079534,4.74031543 18.0143533,7.47408196 14.0190446,11.9782452 C13.8694075,12.2819971 13.8200273,12.5351236 13.7691507,12.5857489 L13.0703458,15.1676395 C12.9207088,15.8763938 12.6708149,16.5851481 12.4209211,17.2939024 L11.3225853,20.533922 L11.0726914,21.1920509 C13.2199828,22.7093211 15.3672742,23.4180754 17.6642027,23.4180754 L17.6642027,23.4180754 Z M10.0252322,16.8888999 C9.37431111,17.6989048 9.07503705,18.1545326 8.77576299,18.6101603 C9.27555067,19.5214158 9.77533836,20.0782942 10.7240371,20.8376738 L11.0233112,19.9755546 C12.4209211,15.9270191 12.5211779,15.6738926 13.2199828,12.940126 C12.0722668,14.2057587 11.3719655,15.1170142 10.0252322,16.8888999 L10.0252322,16.8888999 Z M3.03419009,27.6706011 C1.68446406,30.3031171 1.13679253,31.8218762 1.13679253,32.935633 C1.13679253,33.7962632 1.58570362,34.3531416 2.23363197,34.3531416 C4.03226909,34.3531416 7.02800246,29.8460003 10.0252322,22.6080705 L10.2242495,22.1018175 C9.12591364,21.3945522 8.62612596,20.8882991 7.92732102,19.7745424 C5.67977281,22.9624477 4.43179996,25.0380852 3.03419009,27.6706011 L3.03419009,27.6706011 Z M10.4247631,22.8120607 C8.52586915,27.2149734 7.47691356,29.2906109 5.88028643,31.769762 C4.08164931,34.5035285 2.58378262,35.9731513 1.38519,35.9731513 C0.637004843,35.9731513 0.186597378,35.3135334 0.186597378,34.250402 C0.186597378,31.769762 3.03419009,25.9493407 7.37815311,19.7239171 L7.62655059,19.3174256 C6.7287284,17.7495301 6.32919752,16.2307709 6.32919752,14.7120118 C6.32919752,13.9526322 6.42945433,13.7501309 7.17763949,13.0413767 L7.17763949,13.4463791 C7.17763949,15.2182648 7.57717037,16.6863987 8.52586915,18.2051579 L8.82663958,17.8001554 C9.8740988,16.3320216 11.4228421,14.3070093 12.121647,13.4970044 L13.1706026,12.2313718 C13.2199828,12.1807464 13.3202396,12.0794958 13.4698767,11.8263693 C13.9202841,10.459486 14.4185754,6.61345176 14.4185754,4.84156604 L14.4185754,4.23406237 C14.6175927,4.13281176 14.7672297,4.13281176 14.8674865,4.08218645 C14.9183631,4.08218645 14.9677434,4.03156114 15.0171236,4.03156114 C15.2176372,4.03156114 15.3672742,4.23406237 15.3672742,4.43656359 C15.3672742,4.5378142 15.3672742,4.68969012 15.317894,4.79094073 L15.2670174,5.24656849 C15.1173804,6.51220114 14.7178495,8.4344738 14.2689384,10.611362 L14.1686816,11.0669897 C19.0633089,6.05657339 23.556909,3.37343216 27.1526868,3.37343216 C30.1978004,3.37343216 32.1460746,5.55032033 32.1460746,8.83947624 C32.1460746,11.4213669 31.0477388,14.3576346 29.0500844,17.2432771 C26.0034744,21.4943138 21.4604942,24.0762044 16.8651409,24.0762044 C14.6175927,24.0762044 12.6708149,23.5714403 10.6237803,22.354944 L10.4247631,22.8120607 Z" id="Fill-1" fill="#0D5794"></path>
                    <path d="M17.6642027,23.4180754 C24.3050941,23.4180754 30.6482079,16.8382746 30.6482079,9.95472196 C30.6482079,6.86657829 28.6999337,4.74031543 25.8029608,4.74031543 C22.5079534,4.74031543 18.0143533,7.47408196 14.0190446,11.9782452 C13.8694075,12.2819971 13.8200273,12.5351236 13.7691507,12.5857489 L13.0703458,15.1676395 C12.9207088,15.8763938 12.6708149,16.5851481 12.4209211,17.2939024 L11.3225853,20.533922 L11.0726914,21.1920509 C13.2199828,22.7093211 15.3672742,23.4180754 17.6642027,23.4180754 L17.6642027,23.4180754 Z M10.0252322,16.8888999 C9.37431111,17.6989048 9.07503705,18.1545326 8.77576299,18.6101603 C9.27555067,19.5214158 9.77533836,20.0782942 10.7240371,20.8376738 L11.0233112,19.9755546 C12.4209211,15.9270191 12.5211779,15.6738926 13.2199828,12.940126 C12.0722668,14.2057587 11.3719655,15.1170142 10.0252322,16.8888999 L10.0252322,16.8888999 Z M3.03419009,27.6706011 C1.68446406,30.3031171 1.13679253,31.8218762 1.13679253,32.935633 C1.13679253,33.7962632 1.58570362,34.3531416 2.23363197,34.3531416 C4.03226909,34.3531416 7.02800246,29.8460003 10.0252322,22.6080705 L10.2242495,22.1018175 C9.12591364,21.3945522 8.62612596,20.8882991 7.92732102,19.7745424 C5.67977281,22.9624477 4.43179996,25.0380852 3.03419009,27.6706011 L3.03419009,27.6706011 Z M10.4247631,22.8120607 C8.52586915,27.2149734 7.47691356,29.2906109 5.88028643,31.769762 C4.08164931,34.5035285 2.58378262,35.9731513 1.38519,35.9731513 C0.637004843,35.9731513 0.186597378,35.3135334 0.186597378,34.250402 C0.186597378,31.769762 3.03419009,25.9493407 7.37815311,19.7239171 L7.62655059,19.3174256 C6.7287284,17.7495301 6.32919752,16.2307709 6.32919752,14.7120118 C6.32919752,13.9526322 6.42945433,13.7501309 7.17763949,13.0413767 L7.17763949,13.4463791 C7.17763949,15.2182648 7.57717037,16.6863987 8.52586915,18.2051579 L8.82663958,17.8001554 C9.8740988,16.3320216 11.4228421,14.3070093 12.121647,13.4970044 L13.1706026,12.2313718 C13.2199828,12.1807464 13.3202396,12.0794958 13.4698767,11.8263693 C13.9202841,10.459486 14.4185754,6.61345176 14.4185754,4.84156604 L14.4185754,4.23406237 C14.6175927,4.13281176 14.7672297,4.13281176 14.8674865,4.08218645 C14.9183631,4.08218645 14.9677434,4.03156114 15.0171236,4.03156114 C15.2176372,4.03156114 15.3672742,4.23406237 15.3672742,4.43656359 C15.3672742,4.5378142 15.3672742,4.68969012 15.317894,4.79094073 L15.2670174,5.24656849 C15.1173804,6.51220114 14.7178495,8.4344738 14.2689384,10.611362 L14.1686816,11.0669897 C19.0633089,6.05657339 23.556909,3.37343216 27.1526868,3.37343216 C30.1978004,3.37343216 32.1460746,5.55032033 32.1460746,8.83947624 C32.1460746,11.4213669 31.0477388,14.3576346 29.0500844,17.2432771 C26.0034744,21.4943138 21.4604942,24.0762044 16.8651409,24.0762044 C14.6175927,24.0762044 12.6708149,23.5714403 10.6237803,22.354944 L10.4247631,22.8120607 L10.4247631,22.8120607 Z" id="Stroke-3"></path>
                    <path d="M37.1768716,18.6202854 C37.8592164,18.2331507 38.1599869,17.7894348 38.1599869,17.263825 C38.1599869,16.6280307 37.6138117,16.239407 36.6845657,16.239407 C35.2929413,16.239407 33.4628805,17.2087327 32.3151644,18.5369025 C31.5235845,19.4228454 31.004344,20.5023556 31.004344,21.1098593 C31.004344,21.6920503 31.4143495,22.1074756 31.9874593,22.1074756 C33.1082407,22.1074756 34.8006355,20.5857384 35.9752862,18.4818103 C36.1383906,18.3984274 36.2206909,18.3716258 36.329926,18.3716258 C36.4660957,18.3716258 36.4930303,18.3984274 36.6576311,18.5919948 C36.0291555,19.672994 35.6745158,20.6408307 35.6745158,21.3882984 C35.6745158,21.9407099 35.9483515,22.2742413 36.3852917,22.2742413 C36.9299705,22.2742413 37.5853807,21.857327 38.7330967,20.834398 C39.3885069,20.2804976 40.2354525,19.4228454 40.726262,18.868945 L41.0539671,18.4818103 C41.3547375,18.1497678 41.4101032,18.0946756 41.4909072,18.0946756 C41.5462729,18.0946756 41.6001422,18.1229662 41.6001422,18.2048601 C41.6001422,18.2882429 41.5462729,18.3433352 40.8624317,19.1176046 C38.677731,21.5535752 36.9030358,22.9085466 35.9752862,22.9085466 C35.319876,22.9085466 34.8829359,22.3844258 34.8829359,21.5818658 C34.8829359,21.2230217 34.9368052,20.9445825 35.0460402,20.3638805 L34.8560012,20.5574478 C33.3805801,22.1357662 32.2059294,22.881745 31.2228141,22.881745 C30.5404692,22.881745 30.1035291,22.4112274 30.1035291,21.6637597 C30.1035291,20.475554 31.2781798,18.7036682 32.8897706,17.4856829 C34.2544603,16.4895556 35.8376201,15.8522723 37.0122708,15.8522723 C38.1599869,15.8522723 38.7884624,16.2676976 38.7884624,17.041967 C38.7884624,17.7343425 38.2692219,18.3433352 37.2307409,18.7855621 L37.1768716,18.6202854 Z" id="Fill-5" fill="#0D5794"></path>
                    <path d="M37.1768716,18.6202854 C37.8592164,18.2331507 38.1599869,17.7894348 38.1599869,17.263825 C38.1599869,16.6280307 37.6138117,16.239407 36.6845657,16.239407 C35.2929413,16.239407 33.4628805,17.2087327 32.3151644,18.5369025 C31.5235845,19.4228454 31.004344,20.5023556 31.004344,21.1098593 C31.004344,21.6920503 31.4143495,22.1074756 31.9874593,22.1074756 C33.1082407,22.1074756 34.8006355,20.5857384 35.9752862,18.4818103 C36.1383906,18.3984274 36.2206909,18.3716258 36.329926,18.3716258 C36.4660957,18.3716258 36.4930303,18.3984274 36.6576311,18.5919948 C36.0291555,19.672994 35.6745158,20.6408307 35.6745158,21.3882984 C35.6745158,21.9407099 35.9483515,22.2742413 36.3852917,22.2742413 C36.9299705,22.2742413 37.5853807,21.857327 38.7330967,20.834398 C39.3885069,20.2804976 40.2354525,19.4228454 40.726262,18.868945 L41.0539671,18.4818103 C41.3547375,18.1497678 41.4101032,18.0946756 41.4909072,18.0946756 C41.5462729,18.0946756 41.6001422,18.1229662 41.6001422,18.2048601 C41.6001422,18.2882429 41.5462729,18.3433352 40.8624317,19.1176046 C38.677731,21.5535752 36.9030358,22.9085466 35.9752862,22.9085466 C35.319876,22.9085466 34.8829359,22.3844258 34.8829359,21.5818658 C34.8829359,21.2230217 34.9368052,20.9445825 35.0460402,20.3638805 L34.8560012,20.5574478 C33.3805801,22.1357662 32.2059294,22.881745 31.2228141,22.881745 C30.5404692,22.881745 30.1035291,22.4112274 30.1035291,21.6637597 C30.1035291,20.475554 31.2781798,18.7036682 32.8897706,17.4856829 C34.2544603,16.4895556 35.8376201,15.8522723 37.0122708,15.8522723 C38.1599869,15.8522723 38.7884624,16.2676976 38.7884624,17.041967 C38.7884624,17.7343425 38.2692219,18.3433352 37.2307409,18.7855621 L37.1768716,18.6202854 L37.1768716,18.6202854 Z" id="Stroke-7"></path>
                    <path d="M43.1258414,15.7419389 C44.3812961,13.8881593 45.2551764,12.4498051 45.8297826,11.1767275 C46.320592,10.0689267 46.5390621,9.34974955 46.5390621,8.90752261 C46.5390621,8.6022818 46.3759577,8.40871445 46.1574877,8.40871445 C45.5290121,8.40871445 44.3543614,10.1255079 43.3712461,12.5599896 C42.7158359,14.1651096 42.2250265,15.8521234 42.0065564,17.1802932 C42.3881308,16.7380663 42.6619666,16.4060238 43.1258414,15.7419389 M41.815021,18.9521789 C41.815021,21.1662916 42.3881308,22.3842769 43.4266118,22.3842769 C44.3812961,22.3842769 45.5290121,21.6085185 47.1944723,19.8664124 C47.6867781,19.3676042 48.4244887,18.5650442 48.6698934,18.288094 C48.8060631,18.0945267 48.8614288,18.0379455 48.9422328,18.0379455 C49.0245332,18.0379455 49.0514679,18.0945267 49.0514679,18.1779096 C49.0514679,18.2330018 49.0514679,18.2598034 48.5875931,18.7854132 C45.9105866,21.8303765 44.3274268,23.0483618 42.962737,23.0483618 C41.705786,23.0483618 41.0234411,21.8854687 41.0234411,19.7830296 C41.0234411,18.0945267 41.3780809,16.3792222 42.1696608,14.3586769 C43.0704757,11.9792875 44.162826,9.87535935 45.1190067,8.7407569 C45.5843778,8.16005486 45.9659523,7.90990629 46.3475267,7.90990629 C46.6767282,7.90990629 46.9221329,8.2151471 46.9221329,8.68566465 C46.9221329,9.73688424 46.1844223,11.3970965 44.5997662,13.9715422 C44.1089567,14.7741022 43.8904866,15.077854 43.3443115,15.8253218 C43.043541,16.2392581 42.744267,16.6546834 42.6889013,16.7380663 L42.1427261,17.4304418 C42.1157914,17.4572434 42.0334911,17.5689169 41.924256,17.7341936 C41.8419557,18.1228173 41.815021,18.4265691 41.815021,18.9521789" id="Fill-9" fill="#0D5794"></path>
                    <path d="M43.1258414,15.7419389 C44.3812961,13.8881593 45.2551764,12.4498051 45.8297826,11.1767275 C46.320592,10.0689267 46.5390621,9.34974955 46.5390621,8.90752261 C46.5390621,8.6022818 46.3759577,8.40871445 46.1574877,8.40871445 C45.5290121,8.40871445 44.3543614,10.1255079 43.3712461,12.5599896 C42.7158359,14.1651096 42.2250265,15.8521234 42.0065564,17.1802932 C42.3881308,16.7380663 42.6619666,16.4060238 43.1258414,15.7419389 L43.1258414,15.7419389 Z M41.815021,18.9521789 C41.815021,21.1662916 42.3881308,22.3842769 43.4266118,22.3842769 C44.3812961,22.3842769 45.5290121,21.6085185 47.1944723,19.8664124 C47.6867781,19.3676042 48.4244887,18.5650442 48.6698934,18.288094 C48.8060631,18.0945267 48.8614288,18.0379455 48.9422328,18.0379455 C49.0245332,18.0379455 49.0514679,18.0945267 49.0514679,18.1779096 C49.0514679,18.2330018 49.0514679,18.2598034 48.5875931,18.7854132 C45.9105866,21.8303765 44.3274268,23.0483618 42.962737,23.0483618 C41.705786,23.0483618 41.0234411,21.8854687 41.0234411,19.7830296 C41.0234411,18.0945267 41.3780809,16.3792222 42.1696608,14.3586769 C43.0704757,11.9792875 44.162826,9.87535935 45.1190067,8.7407569 C45.5843778,8.16005486 45.9659523,7.90990629 46.3475267,7.90990629 C46.6767282,7.90990629 46.9221329,8.2151471 46.9221329,8.68566465 C46.9221329,9.73688424 46.1844223,11.3970965 44.5997662,13.9715422 C44.1089567,14.7741022 43.8904866,15.077854 43.3443115,15.8253218 C43.043541,16.2392581 42.744267,16.6546834 42.6889013,16.7380663 L42.1427261,17.4304418 C42.1157914,17.4572434 42.0334911,17.5689169 41.924256,17.7341936 C41.8419557,18.1228173 41.815021,18.4265691 41.815021,18.9521789 L41.815021,18.9521789 Z" id="Stroke-11"></path>
                    <path d="M51.8074827,19.0078668 C51.3421115,18.8142994 51.1520725,18.6475337 51.1520725,18.4539664 C51.1520725,18.3154913 51.2613075,18.2321084 51.4244119,18.2321084 C51.6982477,18.2321084 51.9436524,18.4256758 52.2159918,18.8961933 C52.6529319,19.062959 52.9537024,19.0912496 53.3367732,19.0912496 C54.1822224,19.0912496 54.8929983,18.7860088 55.4930428,18.1219239 C55.5753432,18.0117394 55.6307089,17.9834488 55.6845782,17.9834488 C55.7399439,17.9834488 55.7938132,18.0385411 55.7938132,18.0951223 C55.7938132,18.1770162 55.6576435,18.3437819 55.4391735,18.5373492 C54.8106979,19.0912496 54.1822224,19.3399092 53.3367732,19.3399092 C53.0090681,19.3399092 52.7636633,19.3116186 52.3267232,19.2014341 C52.3805925,19.5349656 52.3805925,19.64515 52.3805925,19.8387174 C52.3805925,21.5257313 50.7974327,23.297617 49.2950769,23.297617 C48.2027266,23.297617 47.4111467,22.3848725 47.4111467,21.1936888 C47.4111467,19.062959 49.513547,16.7654635 51.4797776,16.7654635 C51.9975217,16.7654635 52.4344619,16.9039386 52.4344619,17.0707043 C52.4344619,17.1525982 52.3536579,17.23747 52.2444228,17.3476545 C52.1351878,17.457839 52.0798221,17.4861296 52.0259528,17.4861296 C51.9705871,17.4861296 51.9436524,17.4861296 51.861352,17.4295484 C51.5067123,17.23747 51.3974772,17.2091794 51.1236415,17.2091794 C49.594351,17.2091794 48.2027266,18.8142994 48.2027266,20.5861851 C48.2027266,21.6642064 48.8850715,22.4667664 49.8128211,22.4667664 C51.0428375,22.4667664 52.1082531,21.25027 52.1082531,19.8387174 C52.1082531,19.5900578 52.1082531,19.4218031 52.0259528,19.1180513 C51.9167177,19.062959 51.861352,19.0361574 51.8074827,19.0078668" id="Fill-13" fill="#0D5794"></path>
                    <path d="M51.8074827,19.0078668 C51.3421115,18.8142994 51.1520725,18.6475337 51.1520725,18.4539664 C51.1520725,18.3154913 51.2613075,18.2321084 51.4244119,18.2321084 C51.6982477,18.2321084 51.9436524,18.4256758 52.2159918,18.8961933 C52.6529319,19.062959 52.9537024,19.0912496 53.3367732,19.0912496 C54.1822224,19.0912496 54.8929983,18.7860088 55.4930428,18.1219239 C55.5753432,18.0117394 55.6307089,17.9834488 55.6845782,17.9834488 C55.7399439,17.9834488 55.7938132,18.0385411 55.7938132,18.0951223 C55.7938132,18.1770162 55.6576435,18.3437819 55.4391735,18.5373492 C54.8106979,19.0912496 54.1822224,19.3399092 53.3367732,19.3399092 C53.0090681,19.3399092 52.7636633,19.3116186 52.3267232,19.2014341 C52.3805925,19.5349656 52.3805925,19.64515 52.3805925,19.8387174 C52.3805925,21.5257313 50.7974327,23.297617 49.2950769,23.297617 C48.2027266,23.297617 47.4111467,22.3848725 47.4111467,21.1936888 C47.4111467,19.062959 49.513547,16.7654635 51.4797776,16.7654635 C51.9975217,16.7654635 52.4344619,16.9039386 52.4344619,17.0707043 C52.4344619,17.1525982 52.3536579,17.23747 52.2444228,17.3476545 C52.1351878,17.457839 52.0798221,17.4861296 52.0259528,17.4861296 C51.9705871,17.4861296 51.9436524,17.4861296 51.861352,17.4295484 C51.5067123,17.23747 51.3974772,17.2091794 51.1236415,17.2091794 C49.594351,17.2091794 48.2027266,18.8142994 48.2027266,20.5861851 C48.2027266,21.6642064 48.8850715,22.4667664 49.8128211,22.4667664 C51.0428375,22.4667664 52.1082531,21.25027 52.1082531,19.8387174 C52.1082531,19.5900578 52.1082531,19.4218031 52.0259528,19.1180513 C51.9167177,19.062959 51.861352,19.0361574 51.8074827,19.0078668 L51.8074827,19.0078668 Z" id="Stroke-15"></path>
                    <path d="M55.954673,18.4815125 C55.1900278,19.8111713 54.835388,20.779008 54.835388,21.4981851 C54.835388,21.9687027 55.0269234,22.2188513 55.4084979,22.2188513 C55.9008037,22.2188513 56.6385143,21.801937 57.5393292,21.0559582 C58.6855489,20.0598309 59.6132984,19.1187958 60.5979101,17.9008104 L61.1710199,18.0109949 C60.241774,19.8111713 59.8871342,20.8072986 59.8871342,21.5532774 C59.8871342,21.9687027 60.0786696,22.2456529 60.37944,22.2456529 C61.1440853,22.2456529 62.7556761,20.999377 64.85658,18.7867533 C65.5673559,18.0392856 65.5134866,18.0660872 65.5942906,18.0660872 C65.6496563,18.0660872 65.705022,18.1226684 65.705022,18.2045623 C65.705022,18.2879451 65.5404213,18.4532219 64.8027107,19.2289802 C63.518825,20.558639 62.8095454,21.2227239 62.1541352,21.6917525 C61.2533203,22.384128 60.5156097,22.7161704 59.970931,22.7161704 C59.4771287,22.7161704 59.122489,22.2456529 59.122489,21.581568 C59.122489,20.9725753 59.2601551,20.3367811 59.6417295,19.4508382 C59.5324945,19.5342211 59.4771287,19.6176039 59.4501941,19.6176039 L58.6316795,20.4469656 C57.2116241,21.8585182 55.845438,22.6878798 54.9176884,22.6878798 C54.3715132,22.6878798 54.0438081,22.3007451 54.0438081,21.6366602 C54.0438081,20.5303484 54.835388,18.7301721 56.1192738,17.0148676 C56.5008482,16.8763925 56.7193183,16.8213002 57.0470234,16.8213002 C56.6654489,17.3201084 56.3646785,17.7355337 55.954673,18.4815125" id="Fill-17" fill="#0D5794"></path>
                    <path d="M55.954673,18.4815125 C55.1900278,19.8111713 54.835388,20.779008 54.835388,21.4981851 C54.835388,21.9687027 55.0269234,22.2188513 55.4084979,22.2188513 C55.9008037,22.2188513 56.6385143,21.801937 57.5393292,21.0559582 C58.6855489,20.0598309 59.6132984,19.1187958 60.5979101,17.9008104 L61.1710199,18.0109949 C60.241774,19.8111713 59.8871342,20.8072986 59.8871342,21.5532774 C59.8871342,21.9687027 60.0786696,22.2456529 60.37944,22.2456529 C61.1440853,22.2456529 62.7556761,20.999377 64.85658,18.7867533 C65.5673559,18.0392856 65.5134866,18.0660872 65.5942906,18.0660872 C65.6496563,18.0660872 65.705022,18.1226684 65.705022,18.2045623 C65.705022,18.2879451 65.5404213,18.4532219 64.8027107,19.2289802 C63.518825,20.558639 62.8095454,21.2227239 62.1541352,21.6917525 C61.2533203,22.384128 60.5156097,22.7161704 59.970931,22.7161704 C59.4771287,22.7161704 59.122489,22.2456529 59.122489,21.581568 C59.122489,20.9725753 59.2601551,20.3367811 59.6417295,19.4508382 C59.5324945,19.5342211 59.4771287,19.6176039 59.4501941,19.6176039 L58.6316795,20.4469656 C57.2116241,21.8585182 55.845438,22.6878798 54.9176884,22.6878798 C54.3715132,22.6878798 54.0438081,22.3007451 54.0438081,21.6366602 C54.0438081,20.5303484 54.835388,18.7301721 56.1192738,17.0148676 C56.5008482,16.8763925 56.7193183,16.8213002 57.0470234,16.8213002 C56.6654489,17.3201084 56.3646785,17.7355337 55.954673,18.4815125 L55.954673,18.4815125 Z" id="Stroke-19"></path>
                    <path d="M72.1180163,18.1776118 C72.254186,18.010846 72.2811206,17.9840444 72.3364863,17.9840444 C72.4172903,17.9840444 72.472656,18.0391367 72.472656,18.0942289 C72.472656,18.1776118 72.4457214,18.232704 72.3095517,18.3711791 C72.254186,18.3979807 72.0895852,18.5930371 71.8441805,18.8967889 C69.4425061,21.6365113 67.8024843,22.6877309 65.83775,22.7711138 C65.7270186,22.7994044 65.6177836,22.826206 65.5639143,22.826206 C64.9638698,22.9646811 64.8546348,22.9646811 64.580799,22.9646811 C63.7892191,22.9646811 63.2161093,22.7160216 63.2161093,22.3839791 C63.2161093,22.1904118 63.352279,22.0519367 63.570749,22.0519367 C63.6784877,22.0519367 63.8430884,22.1085179 64.1438589,22.1904118 C64.8546348,22.4390713 65.1000395,22.4941636 65.4816139,22.5224542 C66.4377945,22.2737946 67.1485704,21.2493767 67.1485704,20.0864836 C67.1485704,19.3390158 67.0109044,18.9518811 66.3554942,17.8723709 L66.1639588,17.5686191 C66.0008544,17.7621864 65.8916194,17.8723709 65.83775,17.9557538 L65.4816139,18.3711791 C65.3723789,18.4813636 65.2915749,18.5364558 65.2362092,18.5364558 C65.1554052,18.5364558 65.1269741,18.5096542 65.1269741,18.4262713 C65.1269741,18.3711791 65.1554052,18.2877962 65.3454442,18.0942289 C65.5085486,17.9289522 65.7270186,17.7070942 65.9469851,17.430144 L66.0292854,17.3199595 C65.918554,17.0147187 65.8916194,16.8762436 65.8916194,16.6826762 C65.8916194,16.1302648 66.2462591,15.6314567 66.6278336,15.6314567 C66.8478,15.6314567 66.9839697,15.7699318 66.9839697,16.046882 C66.9839697,16.3238322 66.8208653,16.6826762 66.5455332,16.9879171 L66.4377945,17.1531938 C66.4108599,17.1814844 66.4108599,17.209775 66.4108599,17.2365767 C66.4108599,17.2648673 66.4108599,17.2916689 66.4647292,17.3467611 L66.5200949,17.430144 C66.6008989,17.5135269 66.6831993,17.6237113 66.7924343,17.7621864 C67.7486149,18.813406 67.967085,19.2839236 67.967085,20.1415758 C67.967085,21.0826109 67.5570795,21.7466958 66.4916639,22.467362 C68.1032547,22.1904118 70.0410543,20.6954762 72.1180163,18.1776118" id="Fill-21" fill="#0D5794"></path>
                    <path d="M72.1180163,18.1776118 C72.254186,18.010846 72.2811206,17.9840444 72.3364863,17.9840444 C72.4172903,17.9840444 72.472656,18.0391367 72.472656,18.0942289 C72.472656,18.1776118 72.4457214,18.232704 72.3095517,18.3711791 C72.254186,18.3979807 72.0895852,18.5930371 71.8441805,18.8967889 C69.4425061,21.6365113 67.8024843,22.6877309 65.83775,22.7711138 C65.7270186,22.7994044 65.6177836,22.826206 65.5639143,22.826206 C64.9638698,22.9646811 64.8546348,22.9646811 64.580799,22.9646811 C63.7892191,22.9646811 63.2161093,22.7160216 63.2161093,22.3839791 C63.2161093,22.1904118 63.352279,22.0519367 63.570749,22.0519367 C63.6784877,22.0519367 63.8430884,22.1085179 64.1438589,22.1904118 C64.8546348,22.4390713 65.1000395,22.4941636 65.4816139,22.5224542 C66.4377945,22.2737946 67.1485704,21.2493767 67.1485704,20.0864836 C67.1485704,19.3390158 67.0109044,18.9518811 66.3554942,17.8723709 L66.1639588,17.5686191 C66.0008544,17.7621864 65.8916194,17.8723709 65.83775,17.9557538 L65.4816139,18.3711791 C65.3723789,18.4813636 65.2915749,18.5364558 65.2362092,18.5364558 C65.1554052,18.5364558 65.1269741,18.5096542 65.1269741,18.4262713 C65.1269741,18.3711791 65.1554052,18.2877962 65.3454442,18.0942289 C65.5085486,17.9289522 65.7270186,17.7070942 65.9469851,17.430144 L66.0292854,17.3199595 C65.918554,17.0147187 65.8916194,16.8762436 65.8916194,16.6826762 C65.8916194,16.1302648 66.2462591,15.6314567 66.6278336,15.6314567 C66.8478,15.6314567 66.9839697,15.7699318 66.9839697,16.046882 C66.9839697,16.3238322 66.8208653,16.6826762 66.5455332,16.9879171 L66.4377945,17.1531938 C66.4108599,17.1814844 66.4108599,17.209775 66.4108599,17.2365767 C66.4108599,17.2648673 66.4108599,17.2916689 66.4647292,17.3467611 L66.5200949,17.430144 C66.6008989,17.5135269 66.6831993,17.6237113 66.7924343,17.7621864 C67.7486149,18.813406 67.967085,19.2839236 67.967085,20.1415758 C67.967085,21.0826109 67.5570795,21.7466958 66.4916639,22.467362 C68.1032547,22.1904118 70.0410543,20.6954762 72.1180163,18.1776118 L72.1180163,18.1776118 Z" id="Stroke-23"></path>
                    <path d="M72.0333217,19.6171572 C73.4264425,19.6171572 75.0919026,18.3708813 75.0919026,17.3479523 C75.0919026,16.9593287 74.8719362,16.7940519 74.4634271,16.7940519 C73.9172519,16.7940519 73.1526067,17.2645695 72.4148961,18.0954201 C72.0617527,18.4810658 71.8702173,18.8413989 71.5410159,19.562065 C71.7594859,19.5888666 71.8702173,19.6171572 72.0333217,19.6171572 M71.2417418,20.8887458 C71.2417418,21.8029793 71.8702173,22.4670642 72.7440976,22.4670642 C73.9726176,22.4670642 75.5557774,21.3056601 77.8512095,18.7029238 L78.1774182,18.3440797 C78.2597186,18.2606968 78.342019,18.177314 78.3674572,18.1222217 C78.4497576,18.0105482 78.5051233,17.9837466 78.5589926,17.9837466 C78.612862,17.9837466 78.6697241,18.0388389 78.6697241,18.1222217 C78.6697241,18.177314 78.612862,18.2606968 78.2043529,18.7312144 C76.6196967,20.5031001 75.8281168,21.2773695 74.8180669,22.0516389 C73.8095133,22.8259082 72.8533326,23.2696242 72.1694914,23.2696242 C71.1310104,23.2696242 70.4217309,22.5221564 70.4217309,21.4441352 C70.4217309,20.8068519 70.6402009,20.1144764 71.0771411,19.338718 C72.0048907,17.7067964 73.6987819,16.351825 74.7911322,16.351825 C75.3373074,16.351825 75.6650125,16.6272862 75.6650125,17.0710021 C75.6650125,18.3708813 73.6718472,19.8658168 71.9794524,19.8658168 C71.8148516,19.8658168 71.7041202,19.8658168 71.4332772,19.8375262 C71.2956111,20.3363344 71.2417418,20.5581923 71.2417418,20.8887458" id="Fill-25" fill="#0D5794"></path>
                    <path d="M72.0333217,19.6171572 C73.4264425,19.6171572 75.0919026,18.3708813 75.0919026,17.3479523 C75.0919026,16.9593287 74.8719362,16.7940519 74.4634271,16.7940519 C73.9172519,16.7940519 73.1526067,17.2645695 72.4148961,18.0954201 C72.0617527,18.4810658 71.8702173,18.8413989 71.5410159,19.562065 C71.7594859,19.5888666 71.8702173,19.6171572 72.0333217,19.6171572 L72.0333217,19.6171572 Z M71.2417418,20.8887458 C71.2417418,21.8029793 71.8702173,22.4670642 72.7440976,22.4670642 C73.9726176,22.4670642 75.5557774,21.3056601 77.8512095,18.7029238 L78.1774182,18.3440797 C78.2597186,18.2606968 78.342019,18.177314 78.3674572,18.1222217 C78.4497576,18.0105482 78.5051233,17.9837466 78.5589926,17.9837466 C78.612862,17.9837466 78.6697241,18.0388389 78.6697241,18.1222217 C78.6697241,18.177314 78.612862,18.2606968 78.2043529,18.7312144 C76.6196967,20.5031001 75.8281168,21.2773695 74.8180669,22.0516389 C73.8095133,22.8259082 72.8533326,23.2696242 72.1694914,23.2696242 C71.1310104,23.2696242 70.4217309,22.5221564 70.4217309,21.4441352 C70.4217309,20.8068519 70.6402009,20.1144764 71.0771411,19.338718 C72.0048907,17.7067964 73.6987819,16.351825 74.7911322,16.351825 C75.3373074,16.351825 75.6650125,16.6272862 75.6650125,17.0710021 C75.6650125,18.3708813 73.6718472,19.8658168 71.9794524,19.8658168 C71.8148516,19.8658168 71.7041202,19.8658168 71.4332772,19.8375262 C71.2956111,20.3363344 71.2417418,20.5581923 71.2417418,20.8887458 L71.2417418,20.8887458 Z" id="Stroke-27"></path>
                    <path d="M93.5553167,22.3099768 L93.1183765,22.6152176 C92.7637368,22.9189695 92.2175616,23.389487 91.8359872,23.7766217 L91.7791251,23.831714 C91.6160207,23.8049123 91.5337204,23.7215295 91.5337204,23.6396356 C91.5337204,23.5011605 91.7791251,23.1408274 92.1367576,22.7804944 C92.5452667,22.3382674 92.9283375,22.0896078 93.2560426,22.0896078 C93.3922123,22.0896078 93.5268856,22.1447001 93.6645517,22.1997923 C93.609186,22.2548846 93.5553167,22.3099768 93.5553167,22.3099768 L93.5553167,22.3099768 Z M91.3167467,25.6035997 C90.0582992,27.5958544 89.5689862,28.7587474 89.5689862,29.6714919 C89.5689862,30.1420095 89.7590252,30.3906691 90.1435924,30.3906691 C91.0982766,30.3906691 93.0630108,28.8972225 95.0576725,26.6831099 C95.3868739,26.3227768 95.3868739,26.2959752 95.4946126,26.2959752 C95.5499783,26.2959752 95.6008549,26.3510674 95.6008549,26.4344503 C95.6008549,26.4895425 95.6008549,26.4895425 94.9215028,27.2370103 C92.6814364,29.6149107 90.7167022,31.0264633 89.6213591,31.0264633 C89.022811,31.0264633 88.6666749,30.612527 88.6666749,29.9484421 C88.6666749,29.1458821 89.022811,28.1214642 89.7590252,26.7932944 C90.0582992,26.2676846 90.3066967,25.8790609 90.5251668,25.6035997 C90.9336759,25.4651246 91.0982766,25.4383229 91.4259817,25.4100323 L91.3167467,25.6035997 Z" id="Fill-29" fill="#0D5794"></path>
                    <path d="M93.5553167,22.3099768 L93.1183765,22.6152176 C92.7637368,22.9189695 92.2175616,23.389487 91.8359872,23.7766217 L91.7791251,23.831714 C91.6160207,23.8049123 91.5337204,23.7215295 91.5337204,23.6396356 C91.5337204,23.5011605 91.7791251,23.1408274 92.1367576,22.7804944 C92.5452667,22.3382674 92.9283375,22.0896078 93.2560426,22.0896078 C93.3922123,22.0896078 93.5268856,22.1447001 93.6645517,22.1997923 C93.609186,22.2548846 93.5553167,22.3099768 93.5553167,22.3099768 L93.5553167,22.3099768 Z M91.3167467,25.6035997 C90.0582992,27.5958544 89.5689862,28.7587474 89.5689862,29.6714919 C89.5689862,30.1420095 89.7590252,30.3906691 90.1435924,30.3906691 C91.0982766,30.3906691 93.0630108,28.8972225 95.0576725,26.6831099 C95.3868739,26.3227768 95.3868739,26.2959752 95.4946126,26.2959752 C95.5499783,26.2959752 95.6008549,26.3510674 95.6008549,26.4344503 C95.6008549,26.4895425 95.6008549,26.4895425 94.9215028,27.2370103 C92.6814364,29.6149107 90.7167022,31.0264633 89.6213591,31.0264633 C89.022811,31.0264633 88.6666749,30.612527 88.6666749,29.9484421 C88.6666749,29.1458821 89.022811,28.1214642 89.7590252,26.7932944 C90.0582992,26.2676846 90.3066967,25.8790609 90.5251668,25.6035997 C90.9336759,25.4651246 91.0982766,25.4383229 91.4259817,25.4100323 L91.3167467,25.6035997 L91.3167467,25.6035997 Z" id="Stroke-31"></path>
                    <path d="M95.5193027,27.81667 C96.9109271,27.81667 98.5778836,26.5718831 98.5778836,25.5489541 C98.5778836,25.1603304 98.3594136,24.9935647 97.9494081,24.9935647 C97.4032329,24.9935647 96.6400841,25.4655713 95.9008771,26.2964219 C95.5477338,26.6820676 95.3576947,27.0424007 95.0269969,27.7615778 C95.2454669,27.7883794 95.3576947,27.81667 95.5193027,27.81667 M94.7277228,29.0897476 C94.7277228,30.0039811 95.3576947,30.668066 96.231575,30.668066 C97.4585986,30.668066 99.0417584,29.5051729 101.337191,26.9039256 L101.663399,26.5450815 C101.7457,26.4616986 101.828,26.3783158 101.853438,26.3232235 C101.935739,26.213039 101.991104,26.1847484 102.04647,26.1847484 C102.100339,26.1847484 102.154209,26.2398407 102.154209,26.3232235 C102.154209,26.3783158 102.100339,26.4616986 101.69183,26.9307272 C100.107174,28.7026129 99.3155942,29.4768823 98.3055442,30.2526407 C97.2954943,31.02691 96.3393136,31.470626 95.6569688,31.470626 C94.615495,31.470626 93.9092083,30.7231582 93.9092083,29.645137 C93.9092083,29.0078537 94.126182,28.3154782 94.5646185,27.5397198 C95.4908717,25.9077982 97.1862592,24.5528268 98.2786096,24.5528268 C98.8232884,24.5528268 99.1524898,24.828288 99.1524898,25.2720039 C99.1524898,26.5718831 97.1578282,28.0668186 95.463937,28.0668186 C95.3008326,28.0668186 95.1915976,28.0668186 94.9192582,28.038528 C94.7830885,28.5358472 94.7277228,28.7591941 94.7277228,29.0897476" id="Fill-33" fill="#0D5794"></path>
                    <path d="M95.5193027,27.81667 C96.9109271,27.81667 98.5778836,26.5718831 98.5778836,25.5489541 C98.5778836,25.1603304 98.3594136,24.9935647 97.9494081,24.9935647 C97.4032329,24.9935647 96.6400841,25.4655713 95.9008771,26.2964219 C95.5477338,26.6820676 95.3576947,27.0424007 95.0269969,27.7615778 C95.2454669,27.7883794 95.3576947,27.81667 95.5193027,27.81667 L95.5193027,27.81667 Z M94.7277228,29.0897476 C94.7277228,30.0039811 95.3576947,30.668066 96.231575,30.668066 C97.4585986,30.668066 99.0417584,29.5051729 101.337191,26.9039256 L101.663399,26.5450815 C101.7457,26.4616986 101.828,26.3783158 101.853438,26.3232235 C101.935739,26.213039 101.991104,26.1847484 102.04647,26.1847484 C102.100339,26.1847484 102.154209,26.2398407 102.154209,26.3232235 C102.154209,26.3783158 102.100339,26.4616986 101.69183,26.9307272 C100.107174,28.7026129 99.3155942,29.4768823 98.3055442,30.2526407 C97.2954943,31.02691 96.3393136,31.470626 95.6569688,31.470626 C94.615495,31.470626 93.9092083,30.7231582 93.9092083,29.645137 C93.9092083,29.0078537 94.126182,28.3154782 94.5646185,27.5397198 C95.4908717,25.9077982 97.1862592,24.5528268 98.2786096,24.5528268 C98.8232884,24.5528268 99.1524898,24.828288 99.1524898,25.2720039 C99.1524898,26.5718831 97.1578282,28.0668186 95.463937,28.0668186 C95.3008326,28.0668186 95.1915976,28.0668186 94.9192582,28.038528 C94.7830885,28.5358472 94.7277228,28.7591941 94.7277228,29.0897476 L94.7277228,29.0897476 Z" id="Stroke-35"></path>
                    <path d="M110.072402,27.1536274 C110.563211,27.1536274 111.028582,26.9034789 111.492457,26.3778691 C111.574758,26.2959752 111.630123,26.2676846 111.683993,26.2676846 C111.736366,26.2676846 111.820162,26.3227768 111.820162,26.3778691 C111.820162,26.4612519 111.600196,26.6831099 111.329353,26.9317695 C110.892413,27.2921025 110.510838,27.4305776 110.045467,27.4305776 C109.607031,27.4305776 109.307757,27.3189042 108.924686,27.0151523 C108.106171,29.2843572 106.523011,30.9445695 105.212191,30.9445695 C104.420611,30.9445695 103.95524,30.3072862 103.847501,29.2009744 C102.728216,30.4174707 101.936636,30.9445695 101.14356,30.9445695 C100.513588,30.9445695 100.076648,30.4457613 100.076648,29.7548748 C100.076648,28.4817972 100.980456,26.7650038 102.452884,25.1598838 L102.562119,25.0214087 C102.86289,24.9395148 103.16366,24.8844225 103.572169,24.8561319 C101.822912,26.7650038 100.869724,28.4817972 100.869724,29.6446903 C100.869724,30.0869172 101.168998,30.4174707 101.579004,30.4174707 C102.234414,30.4174707 103.24596,29.6446903 103.817574,28.7021662 L103.847501,28.5636911 C104.03754,27.5675638 104.17371,27.181918 104.556781,26.6265287 C104.803682,26.2676846 105.020656,26.1024078 105.212191,26.1024078 C105.375295,26.1024078 105.483034,26.2125923 105.483034,26.3778691 C105.483034,26.7382021 105.239126,27.2370103 104.639081,28.0946625 L104.475977,28.3433221 L104.475977,28.7319458 C104.475977,29.7548748 104.909924,30.4174707 105.539896,30.4174707 C106.686116,30.4174707 108.133106,28.7587474 108.706216,26.7650038 C108.487746,26.2676846 108.406942,25.8522593 108.406942,25.4383229 C108.406942,24.9112242 108.544608,24.5523801 108.763078,24.5523801 C109.008483,24.5523801 109.171587,24.9395148 109.171587,25.5485074 C109.171587,25.8805499 109.116221,26.2408829 109.008483,26.6831099 C109.36013,27.0151523 109.663893,27.1536274 110.072402,27.1536274" id="Fill-37" fill="#0D5794"></path>
                    <path d="M110.072402,27.1536274 C110.563211,27.1536274 111.028582,26.9034789 111.492457,26.3778691 C111.574758,26.2959752 111.630123,26.2676846 111.683993,26.2676846 C111.736366,26.2676846 111.820162,26.3227768 111.820162,26.3778691 C111.820162,26.4612519 111.600196,26.6831099 111.329353,26.9317695 C110.892413,27.2921025 110.510838,27.4305776 110.045467,27.4305776 C109.607031,27.4305776 109.307757,27.3189042 108.924686,27.0151523 C108.106171,29.2843572 106.523011,30.9445695 105.212191,30.9445695 C104.420611,30.9445695 103.95524,30.3072862 103.847501,29.2009744 C102.728216,30.4174707 101.936636,30.9445695 101.14356,30.9445695 C100.513588,30.9445695 100.076648,30.4457613 100.076648,29.7548748 C100.076648,28.4817972 100.980456,26.7650038 102.452884,25.1598838 L102.562119,25.0214087 C102.86289,24.9395148 103.16366,24.8844225 103.572169,24.8561319 C101.822912,26.7650038 100.869724,28.4817972 100.869724,29.6446903 C100.869724,30.0869172 101.168998,30.4174707 101.579004,30.4174707 C102.234414,30.4174707 103.24596,29.6446903 103.817574,28.7021662 L103.847501,28.5636911 C104.03754,27.5675638 104.17371,27.181918 104.556781,26.6265287 C104.803682,26.2676846 105.020656,26.1024078 105.212191,26.1024078 C105.375295,26.1024078 105.483034,26.2125923 105.483034,26.3778691 C105.483034,26.7382021 105.239126,27.2370103 104.639081,28.0946625 L104.475977,28.3433221 L104.475977,28.7319458 C104.475977,29.7548748 104.909924,30.4174707 105.539896,30.4174707 C106.686116,30.4174707 108.133106,28.7587474 108.706216,26.7650038 C108.487746,26.2676846 108.406942,25.8522593 108.406942,25.4383229 C108.406942,24.9112242 108.544608,24.5523801 108.763078,24.5523801 C109.008483,24.5523801 109.171587,24.9395148 109.171587,25.5485074 C109.171587,25.8805499 109.116221,26.2408829 109.008483,26.6831099 C109.36013,27.0151523 109.663893,27.1536274 110.072402,27.1536274 L110.072402,27.1536274 Z" id="Stroke-39"></path>
                    <path d="M79.9871285,6.15514384 C81.3233872,6.15514384 82.4112484,7.20934139 83.2028283,9.31624751 C83.9959046,11.47229 84.5405833,15.336192 84.5405833,19.0467291 C84.5405833,21.3561365 84.3400697,23.5121789 83.9465243,26.1208712 C84.2413093,25.6682214 84.1919291,25.770961 85.1825262,23.8635781 C86.3197677,21.758161 88.7468803,18.0952712 90.6757016,15.6354769 C93.3467227,12.2257136 95.3264206,10.1679438 98.1455823,7.86151445 C101.856581,4.70041078 105.569075,2.39398139 109.230694,0.937759347 C110.514579,0.386836898 111.159515,0.185824653 111.603937,0.185824653 C112.100732,0.185824653 112.395517,0.435973224 112.395517,0.788861388 C112.395517,0.937759347 112.296756,1.28915853 112.147119,1.69118302 C112.147119,1.74031935 112.100732,1.89219527 112.001971,2.04109322 C108.088963,2.49374302 102.59878,5.2528222 97.9495577,9.06460996 C91.9102072,13.9812206 85.9741061,22.1586965 83.2028283,29.1822132 L82.906547,29.9341479 C82.6596459,30.5356957 82.5115052,30.9883455 82.4112484,31.238494 C81.96533,32.8927504 81.6211649,33.3454002 80.9283454,33.3454002 C80.6799479,33.3454002 80.4809307,33.2947749 80.0365087,33.1950132 C81.9174462,29.1822132 82.8077865,25.0666736 82.8077865,20.2021773 C82.8077865,17.2912222 82.3633645,13.5791961 81.7184289,11.323392 C81.0256095,8.66407445 79.9377483,7.15871608 78.8005068,7.15871608 C77.6123888,7.15871608 75.879592,8.4630622 73.6544893,10.9213675 L73.4554721,10.4687177 C75.9798488,7.61136588 78.2064478,6.15514384 79.9871285,6.15514384" id="Fill-41" fill="#0D5794"></path>
                    <path d="M83.2028283,9.31624751 C83.9959046,11.47229 84.5405833,15.336192 84.5405833,19.0467291 C84.5405833,21.3561365 84.3400697,23.5121789 83.9465243,26.1208712 C84.2413093,25.6682214 84.1919291,25.770961 85.1825262,23.8635781 C86.3197677,21.758161 88.7468803,18.0952712 90.6757016,15.6354769 C93.3467227,12.2257136 95.3264206,10.1679438 98.1455823,7.86151445 C101.856581,4.70041078 105.569075,2.39398139 109.230694,0.937759347 C110.514579,0.386836898 111.159515,0.185824653 111.603937,0.185824653 C112.100732,0.185824653 112.395517,0.435973224 112.395517,0.788861388 C112.395517,0.937759347 112.296756,1.28915853 112.147119,1.69118302 C112.147119,1.74031935 112.100732,1.89219527 112.001971,2.04109322 C108.088963,2.49374302 102.59878,5.2528222 97.9495577,9.06460996 C91.9102072,13.9812206 85.9741061,22.1586965 83.2028283,29.1822132 L82.906547,29.9341479 C82.6596459,30.5356957 82.5115052,30.9883455 82.4112484,31.238494 C81.96533,32.8927504 81.6211649,33.3454002 80.9283454,33.3454002 C80.6799479,33.3454002 80.4809307,33.2947749 80.0365087,33.1950132 C81.9174462,29.1822132 82.8077865,25.0666736 82.8077865,20.2021773 C82.8077865,17.2912222 82.3633645,13.5791961 81.7184289,11.323392 C81.0256095,8.66407445 79.9377483,7.15871608 78.8005068,7.15871608 C77.6123888,7.15871608 75.879592,8.4630622 73.6544893,10.9213675 L73.4554721,10.4687177 C75.9798488,7.61136588 78.2064478,6.15514384 79.9871285,6.15514384 C81.3233872,6.15514384 82.4112484,7.20934139 83.2028283,9.31624751 Z" id="Stroke-43"></path>
                </g>
            </g>
        </g>
    </g>
</svg>