<?xml version="1.0" encoding="UTF-8"?>
<svg width="196px" height="64px" viewBox="0 0 196 64" version="1.1" xmlns="http://www.w3.org/2000/svg" xmlns:xlink="http://www.w3.org/1999/xlink">
    <!-- Generator: Sketch 40.3 (33839) - http://www.bohemiancoding.com/sketch -->
    <title>Page 1</title>
    <desc>Created with Sketch.</desc>
    <defs></defs>
    <g id="Page-1" stroke="none" stroke-width="1" fill="none" fill-rule="evenodd">
        <g id="Hansen-Website" transform="translate(-77.000000, -40.000000)">
            <g id="HEADER" transform="translate(77.000000, 35.000000)">
                <g id="Logo-Group" transform="translate(0.000000, 5.000000)">
                    <g id="Page-1">
                        <path d="M30.6447088,40.981632 C42.1656469,40.981632 53.1699859,29.4669806 53.1699859,17.4207634 C53.1699859,12.016512 49.7900262,8.295552 44.7642181,8.295552 C39.0478807,8.295552 31.252167,13.0796434 24.3209132,20.9619291 C24.0613156,21.4934949 23.9756485,21.9364663 23.8873853,22.0250606 L22.6750649,26.5433691 C22.4154673,27.7836891 21.9819395,29.0240091 21.5484116,30.2643291 L19.6429658,35.9343634 L19.2094379,37.0860891 C22.9346624,39.741312 26.6598868,40.981632 30.6447088,40.981632 L30.6447088,40.981632 Z M17.3922553,29.5555749 C16.263006,30.9730834 15.743811,31.770432 15.2246159,32.5677806 C16.0916717,34.1624777 16.9587274,35.1370149 18.6045757,36.4659291 L19.1237707,34.9572206 C21.5484116,27.8722834 21.722342,27.429312 22.9346624,22.6452206 C20.9435494,24.8600777 19.728633,26.4547749 17.3922553,29.5555749 L17.3922553,29.5555749 Z M5.26385898,48.423552 C2.92228932,53.0304549 1.97216238,55.6882834 1.97216238,57.6373577 C1.97216238,59.1434606 2.75095495,60.1179977 3.87501223,60.1179977 C6.99537446,60.1179977 12.1925169,52.2305006 17.3922553,39.5641234 L17.73752,38.6781806 C15.8320741,37.4404663 14.9650184,36.5545234 13.752698,34.6054491 C9.85354319,40.1842834 7.68849985,43.8166491 5.26385898,48.423552 L5.26385898,48.423552 Z M18.0853807,39.9211063 C14.7910881,47.6262034 12.9713094,51.2585691 10.2014039,55.5970834 C7.08104164,60.3811749 4.48247043,62.9530149 2.40309427,62.9530149 C1.10510666,62.9530149 0.323718111,61.7986834 0.323718111,59.9382034 C0.323718111,55.5970834 5.26385898,45.4113463 12.7999751,34.5168549 L13.230907,33.8054949 C11.6733218,31.0616777 10.9801964,28.4038491 10.9801964,25.7460206 C10.9801964,24.4171063 11.1541268,24.0627291 12.4521144,22.8224091 L12.4521144,23.5311634 C12.4521144,26.6319634 13.1452398,29.2011977 14.7910881,31.8590263 L15.3128791,31.150272 C17.1300618,28.5810377 19.8168961,25.0372663 21.0292166,23.6197577 L22.8489952,21.4049006 C22.9346624,21.3163063 23.1085927,21.1391177 23.3681902,20.6961463 C24.1495788,18.3041006 25.0140385,11.5735406 25.0140385,8.47274057 L25.0140385,7.40960914 C25.3593033,7.23242057 25.6189008,7.23242057 25.7928311,7.14382629 C25.8810943,7.14382629 25.9667615,7.055232 26.0524286,7.055232 C26.4002893,7.055232 26.6598868,7.40960914 26.6598868,7.76398629 C26.6598868,7.94117486 26.6598868,8.20695771 26.5742197,8.38414629 L26.4859565,9.18149486 C26.226359,11.396352 25.5332336,14.7603291 24.754441,18.5698834 L24.5805107,19.367232 C33.0719457,10.5990034 40.8676593,5.90350629 47.1057878,5.90350629 C52.3885974,5.90350629 55.7685571,9.71306057 55.7685571,15.4690834 C55.7685571,19.987392 53.8631113,25.1258606 50.3974844,30.1757349 C45.1120788,37.6150491 37.230698,42.1333577 29.258458,42.1333577 C25.3593033,42.1333577 21.9819395,41.2500206 18.4306454,39.121152 L18.0853807,39.9211063 Z" id="Fill-1" fill="#FEFEFE"></path>
                        <path d="M30.6447088,40.981632 C42.1656469,40.981632 53.1699859,29.4669806 53.1699859,17.4207634 C53.1699859,12.016512 49.7900262,8.295552 44.7642181,8.295552 C39.0478807,8.295552 31.252167,13.0796434 24.3209132,20.9619291 C24.0613156,21.4934949 23.9756485,21.9364663 23.8873853,22.0250606 L22.6750649,26.5433691 C22.4154673,27.7836891 21.9819395,29.0240091 21.5484116,30.2643291 L19.6429658,35.9343634 L19.2094379,37.0860891 C22.9346624,39.741312 26.6598868,40.981632 30.6447088,40.981632 L30.6447088,40.981632 Z M17.3922553,29.5555749 C16.263006,30.9730834 15.743811,31.770432 15.2246159,32.5677806 C16.0916717,34.1624777 16.9587274,35.1370149 18.6045757,36.4659291 L19.1237707,34.9572206 C21.5484116,27.8722834 21.722342,27.429312 22.9346624,22.6452206 C20.9435494,24.8600777 19.728633,26.4547749 17.3922553,29.5555749 L17.3922553,29.5555749 Z M5.26385898,48.423552 C2.92228932,53.0304549 1.97216238,55.6882834 1.97216238,57.6373577 C1.97216238,59.1434606 2.75095495,60.1179977 3.87501223,60.1179977 C6.99537446,60.1179977 12.1925169,52.2305006 17.3922553,39.5641234 L17.73752,38.6781806 C15.8320741,37.4404663 14.9650184,36.5545234 13.752698,34.6054491 C9.85354319,40.1842834 7.68849985,43.8166491 5.26385898,48.423552 L5.26385898,48.423552 Z M18.0853807,39.9211063 C14.7910881,47.6262034 12.9713094,51.2585691 10.2014039,55.5970834 C7.08104164,60.3811749 4.48247043,62.9530149 2.40309427,62.9530149 C1.10510666,62.9530149 0.323718111,61.7986834 0.323718111,59.9382034 C0.323718111,55.5970834 5.26385898,45.4113463 12.7999751,34.5168549 L13.230907,33.8054949 C11.6733218,31.0616777 10.9801964,28.4038491 10.9801964,25.7460206 C10.9801964,24.4171063 11.1541268,24.0627291 12.4521144,22.8224091 L12.4521144,23.5311634 C12.4521144,26.6319634 13.1452398,29.2011977 14.7910881,31.8590263 L15.3128791,31.150272 C17.1300618,28.5810377 19.8168961,25.0372663 21.0292166,23.6197577 L22.8489952,21.4049006 C22.9346624,21.3163063 23.1085927,21.1391177 23.3681902,20.6961463 C24.1495788,18.3041006 25.0140385,11.5735406 25.0140385,8.47274057 L25.0140385,7.40960914 C25.3593033,7.23242057 25.6189008,7.23242057 25.7928311,7.14382629 C25.8810943,7.14382629 25.9667615,7.055232 26.0524286,7.055232 C26.4002893,7.055232 26.6598868,7.40960914 26.6598868,7.76398629 C26.6598868,7.94117486 26.6598868,8.20695771 26.5742197,8.38414629 L26.4859565,9.18149486 C26.226359,11.396352 25.5332336,14.7603291 24.754441,18.5698834 L24.5805107,19.367232 C33.0719457,10.5990034 40.8676593,5.90350629 47.1057878,5.90350629 C52.3885974,5.90350629 55.7685571,9.71306057 55.7685571,15.4690834 C55.7685571,19.987392 53.8631113,25.1258606 50.3974844,30.1757349 C45.1120788,37.6150491 37.230698,42.1333577 29.258458,42.1333577 C25.3593033,42.1333577 21.9819395,41.2500206 18.4306454,39.121152 L18.0853807,39.9211063 L18.0853807,39.9211063 Z" id="Stroke-3" stroke="#FEFEFE" stroke-width="0.25"></path>
                        <path d="M64.4962259,32.5854994 C65.6799906,31.9080137 66.2017816,31.1315109 66.2017816,30.2116937 C66.2017816,29.0990537 65.2542506,28.4189623 63.64215,28.4189623 C61.227893,28.4189623 58.0530153,30.1152823 56.0619023,32.4395794 C54.6886314,33.9899794 53.787828,35.8791223 53.787828,36.9422537 C53.787828,37.961088 54.4991252,38.6880823 55.4933837,38.6880823 C57.4377692,38.6880823 60.3738172,36.0250423 62.4116577,32.343168 C62.694619,32.197248 62.8373977,32.1503451 63.0269039,32.1503451 C63.2631376,32.1503451 63.3098652,32.197248 63.5954224,32.5359909 C62.5051128,34.4277394 61.8898667,36.1214537 61.8898667,37.4295223 C61.8898667,38.3962423 62.3649302,38.9799223 63.122955,38.9799223 C64.0678899,38.9799223 65.2049271,38.2503223 67.1960401,36.4601966 C68.3330772,35.4908709 69.8023992,33.9899794 70.6538791,33.0206537 L71.2223977,32.343168 C71.7441887,31.7620937 71.8402398,31.6656823 71.9804224,31.6656823 C72.0764735,31.6656823 72.1699286,31.7151909 72.1699286,31.8585051 C72.1699286,32.0044251 72.0764735,32.1008366 70.8901128,33.455808 C67.099989,37.7187566 64.0211624,40.0899566 62.4116577,40.0899566 C61.2746206,40.0899566 60.5165958,39.1727451 60.5165958,37.7682651 C60.5165958,37.140288 60.6100509,36.6530194 60.7995571,35.6367909 L60.4698683,35.9755337 C57.9102367,38.7375909 55.8723961,40.0430537 54.1668404,40.0430537 C52.9830757,40.0430537 52.2250509,39.219648 52.2250509,37.9115794 C52.2250509,35.8322194 54.2628915,32.7314194 57.0587568,30.5999451 C59.4262862,28.8567223 62.172828,27.7414766 64.2106686,27.7414766 C66.2017816,27.7414766 67.2920912,28.4684709 67.2920912,29.8234423 C67.2920912,31.0350994 66.3912878,32.1008366 64.589681,32.8747337 L64.4962259,32.5854994 Z" id="Fill-5" fill="#FEFEFE"></path>
                        <path d="M64.4962259,32.5854994 C65.6799906,31.9080137 66.2017816,31.1315109 66.2017816,30.2116937 C66.2017816,29.0990537 65.2542506,28.4189623 63.64215,28.4189623 C61.227893,28.4189623 58.0530153,30.1152823 56.0619023,32.4395794 C54.6886314,33.9899794 53.787828,35.8791223 53.787828,36.9422537 C53.787828,37.961088 54.4991252,38.6880823 55.4933837,38.6880823 C57.4377692,38.6880823 60.3738172,36.0250423 62.4116577,32.343168 C62.694619,32.197248 62.8373977,32.1503451 63.0269039,32.1503451 C63.2631376,32.1503451 63.3098652,32.197248 63.5954224,32.5359909 C62.5051128,34.4277394 61.8898667,36.1214537 61.8898667,37.4295223 C61.8898667,38.3962423 62.3649302,38.9799223 63.122955,38.9799223 C64.0678899,38.9799223 65.2049271,38.2503223 67.1960401,36.4601966 C68.3330772,35.4908709 69.8023992,33.9899794 70.6538791,33.0206537 L71.2223977,32.343168 C71.7441887,31.7620937 71.8402398,31.6656823 71.9804224,31.6656823 C72.0764735,31.6656823 72.1699286,31.7151909 72.1699286,31.8585051 C72.1699286,32.0044251 72.0764735,32.1008366 70.8901128,33.455808 C67.099989,37.7187566 64.0211624,40.0899566 62.4116577,40.0899566 C61.2746206,40.0899566 60.5165958,39.1727451 60.5165958,37.7682651 C60.5165958,37.140288 60.6100509,36.6530194 60.7995571,35.6367909 L60.4698683,35.9755337 C57.9102367,38.7375909 55.8723961,40.0430537 54.1668404,40.0430537 C52.9830757,40.0430537 52.2250509,39.219648 52.2250509,37.9115794 C52.2250509,35.8322194 54.2628915,32.7314194 57.0587568,30.5999451 C59.4262862,28.8567223 62.172828,27.7414766 64.2106686,27.7414766 C66.2017816,27.7414766 67.2920912,28.4684709 67.2920912,29.8234423 C67.2920912,31.0350994 66.3912878,32.1008366 64.589681,32.8747337 L64.4962259,32.5854994 L64.4962259,32.5854994 Z" id="Stroke-7" stroke="#FEFEFE" stroke-width="0.25"></path>
                        <path d="M74.816785,27.5483931 C76.9948082,24.3042789 78.5108577,21.7871589 79.5077122,19.5592731 C80.3591921,17.6206217 80.7382045,16.3620617 80.7382045,15.5881646 C80.7382045,15.0539931 80.4552432,14.7152503 80.0762308,14.7152503 C78.9859212,14.7152503 76.9480807,17.7196389 75.2425249,21.9799817 C74.1054878,24.7889417 73.2540079,27.741216 72.8749955,30.0655131 C73.5369692,29.291616 74.0120327,28.7105417 74.816785,27.5483931 M72.5427107,33.1663131 C72.5427107,37.0410103 73.5369692,39.1724846 75.338576,39.1724846 C76.9948082,39.1724846 78.9859212,37.8149074 81.8752416,34.7662217 C82.7293175,33.8933074 84.0091333,32.4888274 84.4348732,32.0041646 C84.671107,31.6654217 84.767158,31.5664046 84.9073407,31.5664046 C85.0501193,31.5664046 85.0968469,31.6654217 85.0968469,31.8113417 C85.0968469,31.9077531 85.0968469,31.954656 84.2920946,32.8744731 C79.6478949,38.2031589 76.9013531,40.3346331 74.5338237,40.3346331 C72.3532045,40.3346331 71.1694398,38.2995703 71.1694398,34.6203017 C71.1694398,31.6654217 71.7846859,28.6636389 73.1579568,25.1276846 C74.7207339,20.9637531 76.6157958,17.2818789 78.274624,15.2963246 C79.0819723,14.280096 79.743946,13.842336 80.4059197,13.842336 C80.9770342,13.842336 81.4027741,14.3765074 81.4027741,15.1999131 C81.4027741,17.0395474 80.1229584,19.9449189 77.3738206,24.4501989 C76.5223407,25.8546789 76.1433283,26.3862446 75.1957974,27.6943131 C74.6740063,28.4187017 74.1548113,29.145696 74.0587602,29.291616 L73.1112293,30.5032731 C73.0645017,30.550176 72.9217231,30.7456046 72.7322169,31.0348389 C72.5894382,31.7149303 72.5427107,32.246496 72.5427107,33.1663131" id="Fill-9" fill="#FEFEFE"></path>
                        <path d="M74.816785,27.5483931 C76.9948082,24.3042789 78.5108577,21.7871589 79.5077122,19.5592731 C80.3591921,17.6206217 80.7382045,16.3620617 80.7382045,15.5881646 C80.7382045,15.0539931 80.4552432,14.7152503 80.0762308,14.7152503 C78.9859212,14.7152503 76.9480807,17.7196389 75.2425249,21.9799817 C74.1054878,24.7889417 73.2540079,27.741216 72.8749955,30.0655131 C73.5369692,29.291616 74.0120327,28.7105417 74.816785,27.5483931 L74.816785,27.5483931 Z M72.5427107,33.1663131 C72.5427107,37.0410103 73.5369692,39.1724846 75.338576,39.1724846 C76.9948082,39.1724846 78.9859212,37.8149074 81.8752416,34.7662217 C82.7293175,33.8933074 84.0091333,32.4888274 84.4348732,32.0041646 C84.671107,31.6654217 84.767158,31.5664046 84.9073407,31.5664046 C85.0501193,31.5664046 85.0968469,31.6654217 85.0968469,31.8113417 C85.0968469,31.9077531 85.0968469,31.954656 84.2920946,32.8744731 C79.6478949,38.2031589 76.9013531,40.3346331 74.5338237,40.3346331 C72.3532045,40.3346331 71.1694398,38.2995703 71.1694398,34.6203017 C71.1694398,31.6654217 71.7846859,28.6636389 73.1579568,25.1276846 C74.7207339,20.9637531 76.6157958,17.2818789 78.274624,15.2963246 C79.0819723,14.280096 79.743946,13.842336 80.4059197,13.842336 C80.9770342,13.842336 81.4027741,14.3765074 81.4027741,15.1999131 C81.4027741,17.0395474 80.1229584,19.9449189 77.3738206,24.4501989 C76.5223407,25.8546789 76.1433283,26.3862446 75.1957974,27.6943131 C74.6740063,28.4187017 74.1548113,29.145696 74.0587602,29.291616 L73.1112293,30.5032731 C73.0645017,30.550176 72.9217231,30.7456046 72.7322169,31.0348389 C72.5894382,31.7149303 72.5427107,32.246496 72.5427107,33.1663131 L72.5427107,33.1663131 Z" id="Stroke-11" stroke="#FEFEFE" stroke-width="0.25"></path>
                        <path d="M89.8781141,33.2637669 C89.0707658,32.925024 88.7410769,32.633184 88.7410769,32.2944411 C88.7410769,32.0521097 88.9305831,31.9061897 89.2135444,31.9061897 C89.6886079,31.9061897 90.1143478,32.2449326 90.5868153,33.0683383 C91.3448401,33.3601783 91.8666311,33.4096869 92.5312008,33.4096869 C93.9979268,33.4096869 95.231015,32.8755154 96.2720011,31.7133669 C96.4147797,31.520544 96.5108308,31.4710354 96.6042859,31.4710354 C96.700337,31.4710354 96.7937921,31.5674469 96.7937921,31.666464 C96.7937921,31.8097783 96.5575584,32.1016183 96.178546,32.4403611 C95.0882364,33.4096869 93.9979268,33.8448411 92.5312008,33.8448411 C91.9626822,33.8448411 91.5369423,33.7953326 90.7789175,33.6025097 C90.8723726,34.1861897 90.8723726,34.3790126 90.8723726,34.7177554 C90.8723726,37.6700297 88.1258308,40.7708297 85.5194717,40.7708297 C83.6244098,40.7708297 82.2511389,39.1735269 82.2511389,37.0889554 C82.2511389,33.3601783 85.8984841,29.3395611 89.3095955,29.3395611 C90.2078029,29.3395611 90.9658277,29.5818926 90.9658277,29.8737326 C90.9658277,30.0170469 90.825645,30.1655726 90.6361389,30.3583954 C90.4466327,30.5512183 90.3505816,30.6007269 90.2571265,30.6007269 C90.1610754,30.6007269 90.1143478,30.6007269 89.9715692,30.5017097 C89.3563231,30.1655726 89.1668169,30.116064 88.6917534,30.116064 C86.0386667,30.116064 83.6244098,32.925024 83.6244098,36.025824 C83.6244098,37.9123611 84.8081745,39.3168411 86.4176791,39.3168411 C88.5515707,39.3168411 90.3999051,37.1879726 90.3999051,34.7177554 C90.3999051,34.2826011 90.3999051,33.9881554 90.2571265,33.4565897 C90.0676203,33.3601783 89.9715692,33.3132754 89.8781141,33.2637669" id="Fill-13" fill="#FEFEFE"></path>
                        <path d="M89.8781141,33.2637669 C89.0707658,32.925024 88.7410769,32.633184 88.7410769,32.2944411 C88.7410769,32.0521097 88.9305831,31.9061897 89.2135444,31.9061897 C89.6886079,31.9061897 90.1143478,32.2449326 90.5868153,33.0683383 C91.3448401,33.3601783 91.8666311,33.4096869 92.5312008,33.4096869 C93.9979268,33.4096869 95.231015,32.8755154 96.2720011,31.7133669 C96.4147797,31.520544 96.5108308,31.4710354 96.6042859,31.4710354 C96.700337,31.4710354 96.7937921,31.5674469 96.7937921,31.666464 C96.7937921,31.8097783 96.5575584,32.1016183 96.178546,32.4403611 C95.0882364,33.4096869 93.9979268,33.8448411 92.5312008,33.8448411 C91.9626822,33.8448411 91.5369423,33.7953326 90.7789175,33.6025097 C90.8723726,34.1861897 90.8723726,34.3790126 90.8723726,34.7177554 C90.8723726,37.6700297 88.1258308,40.7708297 85.5194717,40.7708297 C83.6244098,40.7708297 82.2511389,39.1735269 82.2511389,37.0889554 C82.2511389,33.3601783 85.8984841,29.3395611 89.3095955,29.3395611 C90.2078029,29.3395611 90.9658277,29.5818926 90.9658277,29.8737326 C90.9658277,30.0170469 90.825645,30.1655726 90.6361389,30.3583954 C90.4466327,30.5512183 90.3505816,30.6007269 90.2571265,30.6007269 C90.1610754,30.6007269 90.1143478,30.6007269 89.9715692,30.5017097 C89.3563231,30.1655726 89.1668169,30.116064 88.6917534,30.116064 C86.0386667,30.116064 83.6244098,32.925024 83.6244098,36.025824 C83.6244098,37.9123611 84.8081745,39.3168411 86.4176791,39.3168411 C88.5515707,39.3168411 90.3999051,37.1879726 90.3999051,34.7177554 C90.3999051,34.2826011 90.3999051,33.9881554 90.2571265,33.4565897 C90.0676203,33.3601783 89.9715692,33.3132754 89.8781141,33.2637669 L89.8781141,33.2637669 Z" id="Stroke-15" stroke="#FEFEFE" stroke-width="0.25"></path>
                        <path d="M97.0728594,32.3426469 C95.7463161,34.6695497 95.13107,36.363264 95.13107,37.621824 C95.13107,38.4452297 95.4633548,38.8829897 96.1253285,38.8829897 C96.9794043,38.8829897 98.2592201,38.1533897 99.8219972,36.8479269 C101.810514,35.104704 103.420019,33.4578926 105.128171,31.3264183 L106.122429,31.5192411 C104.510328,34.6695497 103.895082,36.4127726 103.895082,37.7182354 C103.895082,38.4452297 104.227367,38.9298926 104.749158,38.9298926 C106.075702,38.9298926 108.871567,36.7489097 112.516316,32.8768183 C113.749404,31.5687497 113.655949,31.6156526 113.796132,31.6156526 C113.892183,31.6156526 113.988234,31.7146697 113.988234,31.857984 C113.988234,32.003904 113.702677,32.2931383 112.422861,33.6507154 C110.195514,35.9776183 108.965022,37.1397669 107.827985,37.9605669 C106.265208,39.172224 104.985392,39.7532983 104.040457,39.7532983 C103.183785,39.7532983 102.568539,38.9298926 102.568539,37.767744 C102.568539,36.7020069 102.807369,35.5893669 103.469342,34.0389669 C103.279836,34.1848869 103.183785,34.3308069 103.137058,34.3308069 L101.717059,35.7821897 C99.2534786,38.2524069 96.8833533,39.7037897 95.2738486,39.7037897 C94.3263176,39.7037897 93.7577991,39.026304 93.7577991,37.8641554 C93.7577991,35.9281097 95.13107,32.7778011 97.3584167,29.7760183 C98.0203904,29.5336869 98.3994028,29.4372754 98.9679214,29.4372754 C98.3059477,30.3101897 97.7841567,31.037184 97.0728594,32.3426469" id="Fill-17" fill="#FEFEFE"></path>
                        <path d="M97.0728594,32.3426469 C95.7463161,34.6695497 95.13107,36.363264 95.13107,37.621824 C95.13107,38.4452297 95.4633548,38.8829897 96.1253285,38.8829897 C96.9794043,38.8829897 98.2592201,38.1533897 99.8219972,36.8479269 C101.810514,35.104704 103.420019,33.4578926 105.128171,31.3264183 L106.122429,31.5192411 C104.510328,34.6695497 103.895082,36.4127726 103.895082,37.7182354 C103.895082,38.4452297 104.227367,38.9298926 104.749158,38.9298926 C106.075702,38.9298926 108.871567,36.7489097 112.516316,32.8768183 C113.749404,31.5687497 113.655949,31.6156526 113.796132,31.6156526 C113.892183,31.6156526 113.988234,31.7146697 113.988234,31.857984 C113.988234,32.003904 113.702677,32.2931383 112.422861,33.6507154 C110.195514,35.9776183 108.965022,37.1397669 107.827985,37.9605669 C106.265208,39.172224 104.985392,39.7532983 104.040457,39.7532983 C103.183785,39.7532983 102.568539,38.9298926 102.568539,37.767744 C102.568539,36.7020069 102.807369,35.5893669 103.469342,34.0389669 C103.279836,34.1848869 103.183785,34.3308069 103.137058,34.3308069 L101.717059,35.7821897 C99.2534786,38.2524069 96.8833533,39.7037897 95.2738486,39.7037897 C94.3263176,39.7037897 93.7577991,39.026304 93.7577991,37.8641554 C93.7577991,35.9281097 95.13107,32.7778011 97.3584167,29.7760183 C98.0203904,29.5336869 98.3994028,29.4372754 98.9679214,29.4372754 C98.3059477,30.3101897 97.7841567,31.037184 97.0728594,32.3426469 L97.0728594,32.3426469 Z" id="Stroke-19" stroke="#FEFEFE" stroke-width="0.25"></path>
                        <path d="M125.113805,31.8108206 C125.350039,31.5189806 125.396766,31.4720777 125.492817,31.4720777 C125.633,31.4720777 125.729051,31.5684891 125.729051,31.6649006 C125.729051,31.8108206 125.682324,31.907232 125.44609,32.1495634 C125.350039,32.1964663 125.064482,32.5378149 124.638742,33.0693806 C120.472201,37.8638949 117.627013,39.7035291 114.218497,39.8494491 C114.026395,39.8989577 113.836889,39.9458606 113.743434,39.9458606 C112.702448,40.188192 112.512941,40.188192 112.037878,40.188192 C110.664607,40.188192 109.670348,39.7530377 109.670348,39.1719634 C109.670348,38.8332206 109.906582,38.5908891 110.285595,38.5908891 C110.472505,38.5908891 110.758062,38.6899063 111.279853,38.8332206 C112.512941,39.2683749 112.938681,39.3647863 113.600655,39.4142949 C115.259483,38.9791406 116.492571,37.1864091 116.492571,35.1513463 C116.492571,33.8432777 116.253742,33.165792 115.116704,31.2766491 L114.78442,30.7450834 C114.501458,31.0838263 114.311952,31.2766491 114.218497,31.4225691 L113.600655,32.1495634 C113.411149,32.3423863 113.270966,32.4387977 113.174915,32.4387977 C113.034732,32.4387977 112.985409,32.3918949 112.985409,32.2459749 C112.985409,32.1495634 113.034732,32.0036434 113.364421,31.6649006 C113.647383,31.3756663 114.026395,30.9874149 114.408003,30.502752 L114.550782,30.3099291 C114.35868,29.7757577 114.311952,29.5334263 114.311952,29.1946834 C114.311952,28.2279634 114.927198,27.3550491 115.589172,27.3550491 C115.97078,27.3550491 116.207014,27.5973806 116.207014,28.0820434 C116.207014,28.5667063 115.924053,29.1946834 115.446393,29.7288549 L115.259483,30.0180891 C115.212756,30.0675977 115.212756,30.1171063 115.212756,30.1640091 C115.212756,30.2135177 115.212756,30.2604206 115.306211,30.356832 L115.402262,30.502752 C115.542444,30.648672 115.685223,30.8414949 115.874729,31.0838263 C117.533557,32.9234606 117.91257,33.7468663 117.91257,35.2477577 C117.91257,36.8945691 117.201273,38.0567177 115.352938,39.3178834 C118.148804,38.8332206 121.510591,36.2170834 125.113805,31.8108206" id="Fill-21" fill="#FEFEFE"></path>
                        <path d="M125.113805,31.8108206 C125.350039,31.5189806 125.396766,31.4720777 125.492817,31.4720777 C125.633,31.4720777 125.729051,31.5684891 125.729051,31.6649006 C125.729051,31.8108206 125.682324,31.907232 125.44609,32.1495634 C125.350039,32.1964663 125.064482,32.5378149 124.638742,33.0693806 C120.472201,37.8638949 117.627013,39.7035291 114.218497,39.8494491 C114.026395,39.8989577 113.836889,39.9458606 113.743434,39.9458606 C112.702448,40.188192 112.512941,40.188192 112.037878,40.188192 C110.664607,40.188192 109.670348,39.7530377 109.670348,39.1719634 C109.670348,38.8332206 109.906582,38.5908891 110.285595,38.5908891 C110.472505,38.5908891 110.758062,38.6899063 111.279853,38.8332206 C112.512941,39.2683749 112.938681,39.3647863 113.600655,39.4142949 C115.259483,38.9791406 116.492571,37.1864091 116.492571,35.1513463 C116.492571,33.8432777 116.253742,33.165792 115.116704,31.2766491 L114.78442,30.7450834 C114.501458,31.0838263 114.311952,31.2766491 114.218497,31.4225691 L113.600655,32.1495634 C113.411149,32.3423863 113.270966,32.4387977 113.174915,32.4387977 C113.034732,32.4387977 112.985409,32.3918949 112.985409,32.2459749 C112.985409,32.1495634 113.034732,32.0036434 113.364421,31.6649006 C113.647383,31.3756663 114.026395,30.9874149 114.408003,30.502752 L114.550782,30.3099291 C114.35868,29.7757577 114.311952,29.5334263 114.311952,29.1946834 C114.311952,28.2279634 114.927198,27.3550491 115.589172,27.3550491 C115.97078,27.3550491 116.207014,27.5973806 116.207014,28.0820434 C116.207014,28.5667063 115.924053,29.1946834 115.446393,29.7288549 L115.259483,30.0180891 C115.212756,30.0675977 115.212756,30.1171063 115.212756,30.1640091 C115.212756,30.2135177 115.212756,30.2604206 115.306211,30.356832 L115.402262,30.502752 C115.542444,30.648672 115.685223,30.8414949 115.874729,31.0838263 C117.533557,32.9234606 117.91257,33.7468663 117.91257,35.2477577 C117.91257,36.8945691 117.201273,38.0567177 115.352938,39.3178834 C118.148804,38.8332206 121.510591,36.2170834 125.113805,31.8108206 L125.113805,31.8108206 Z" id="Stroke-23" stroke="#FEFEFE" stroke-width="0.25"></path>
                        <path d="M124.966873,34.3300251 C127.383726,34.3300251 130.273046,32.1490423 130.273046,30.3589166 C130.273046,29.6788251 129.891438,29.3895909 129.182737,29.3895909 C128.235206,29.3895909 126.908662,30.2129966 125.628847,31.6669851 C125.016196,32.3418651 124.683912,32.972448 124.112797,34.2336137 C124.491809,34.2805166 124.683912,34.3300251 124.966873,34.3300251 M123.593602,36.5553051 C123.593602,38.1552137 124.683912,39.3173623 126.199961,39.3173623 C128.331257,39.3173623 131.077799,37.2849051 135.060025,32.7301166 L135.625947,32.1021394 C135.768726,31.9562194 135.911504,31.8102994 135.955636,31.713888 C136.098415,31.5184594 136.194466,31.4715566 136.287921,31.4715566 C136.381376,31.4715566 136.480023,31.567968 136.480023,31.713888 C136.480023,31.8102994 136.381376,31.9562194 135.672675,32.7796251 C132.923537,35.8804251 131.550266,37.2353966 129.797983,38.590368 C128.048296,39.9453394 126.389467,40.7218423 125.203107,40.7218423 C123.4015,40.7218423 122.171008,39.4137737 122.171008,37.5272366 C122.171008,36.4119909 122.55002,35.2003337 123.308045,33.8427566 C124.917549,30.9868937 127.856193,28.6156937 129.751255,28.6156937 C130.698786,28.6156937 131.267305,29.0977509 131.267305,29.8742537 C131.267305,32.1490423 127.809466,34.7651794 124.873418,34.7651794 C124.587861,34.7651794 124.395758,34.7651794 123.925887,34.7156709 C123.687057,35.5885851 123.593602,35.9768366 123.593602,36.5553051" id="Fill-25" fill="#FEFEFE"></path>
                        <path d="M124.966873,34.3300251 C127.383726,34.3300251 130.273046,32.1490423 130.273046,30.3589166 C130.273046,29.6788251 129.891438,29.3895909 129.182737,29.3895909 C128.235206,29.3895909 126.908662,30.2129966 125.628847,31.6669851 C125.016196,32.3418651 124.683912,32.972448 124.112797,34.2336137 C124.491809,34.2805166 124.683912,34.3300251 124.966873,34.3300251 L124.966873,34.3300251 Z M123.593602,36.5553051 C123.593602,38.1552137 124.683912,39.3173623 126.199961,39.3173623 C128.331257,39.3173623 131.077799,37.2849051 135.060025,32.7301166 L135.625947,32.1021394 C135.768726,31.9562194 135.911504,31.8102994 135.955636,31.713888 C136.098415,31.5184594 136.194466,31.4715566 136.287921,31.4715566 C136.381376,31.4715566 136.480023,31.567968 136.480023,31.713888 C136.480023,31.8102994 136.381376,31.9562194 135.672675,32.7796251 C132.923537,35.8804251 131.550266,37.2353966 129.797983,38.590368 C128.048296,39.9453394 126.389467,40.7218423 125.203107,40.7218423 C123.4015,40.7218423 122.171008,39.4137737 122.171008,37.5272366 C122.171008,36.4119909 122.55002,35.2003337 123.308045,33.8427566 C124.917549,30.9868937 127.856193,28.6156937 129.751255,28.6156937 C130.698786,28.6156937 131.267305,29.0977509 131.267305,29.8742537 C131.267305,32.1490423 127.809466,34.7651794 124.873418,34.7651794 C124.587861,34.7651794 124.395758,34.7651794 123.925887,34.7156709 C123.687057,35.5885851 123.593602,35.9768366 123.593602,36.5553051 L123.593602,36.5553051 Z" id="Stroke-27" stroke="#FEFEFE" stroke-width="0.25"></path>
                        <path d="M162.304265,39.0424594 L161.546241,39.5766309 C160.930995,40.1081966 159.983464,40.9316023 159.32149,41.609088 L159.222843,41.7054994 C158.939882,41.6585966 158.797103,41.5126766 158.797103,41.3693623 C158.797103,41.1270309 159.222843,40.496448 159.843281,39.8658651 C160.551982,39.091968 161.216552,38.6568137 161.78507,38.6568137 C162.021304,38.6568137 162.254942,38.7532251 162.493772,38.8496366 C162.397721,38.946048 162.304265,39.0424594 162.304265,39.0424594 L162.304265,39.0424594 Z M158.420687,44.8062994 C156.237471,48.2927451 155.388587,50.327808 155.388587,51.9251109 C155.388587,52.7485166 155.718276,53.1836709 156.385442,53.1836709 C158.041674,53.1836709 161.45019,50.5701394 164.910625,46.6954423 C165.481739,46.0648594 165.481739,46.0179566 165.668649,46.0179566 C165.7647,46.0179566 165.852964,46.114368 165.852964,46.260288 C165.852964,46.3566994 165.852964,46.3566994 164.674391,47.664768 C160.788216,51.8260937 157.3797,54.2963109 155.479447,54.2963109 C154.441057,54.2963109 153.823214,53.5719223 153.823214,52.4097737 C153.823214,51.0052937 154.441057,49.2125623 155.718276,46.8882651 C156.237471,45.968448 156.668403,45.2883566 157.047416,44.8062994 C157.756117,44.563968 158.041674,44.5170651 158.610193,44.4675566 L158.420687,44.8062994 Z" id="Fill-29" fill="#FEFEFE"></path>
                        <path d="M162.304265,39.0424594 L161.546241,39.5766309 C160.930995,40.1081966 159.983464,40.9316023 159.32149,41.609088 L159.222843,41.7054994 C158.939882,41.6585966 158.797103,41.5126766 158.797103,41.3693623 C158.797103,41.1270309 159.222843,40.496448 159.843281,39.8658651 C160.551982,39.091968 161.216552,38.6568137 161.78507,38.6568137 C162.021304,38.6568137 162.254942,38.7532251 162.493772,38.8496366 C162.397721,38.946048 162.304265,39.0424594 162.304265,39.0424594 L162.304265,39.0424594 Z M158.420687,44.8062994 C156.237471,48.2927451 155.388587,50.327808 155.388587,51.9251109 C155.388587,52.7485166 155.718276,53.1836709 156.385442,53.1836709 C158.041674,53.1836709 161.45019,50.5701394 164.910625,46.6954423 C165.481739,46.0648594 165.481739,46.0179566 165.668649,46.0179566 C165.7647,46.0179566 165.852964,46.114368 165.852964,46.260288 C165.852964,46.3566994 165.852964,46.3566994 164.674391,47.664768 C160.788216,51.8260937 157.3797,54.2963109 155.479447,54.2963109 C154.441057,54.2963109 153.823214,53.5719223 153.823214,52.4097737 C153.823214,51.0052937 154.441057,49.2125623 155.718276,46.8882651 C156.237471,45.968448 156.668403,45.2883566 157.047416,44.8062994 C157.756117,44.563968 158.041674,44.5170651 158.610193,44.4675566 L158.420687,44.8062994 L158.420687,44.8062994 Z" id="Stroke-31" stroke="#FEFEFE" stroke-width="0.25"></path>
                        <path d="M165.711483,48.6791726 C168.12574,48.6791726 171.017656,46.5007954 171.017656,44.7106697 C171.017656,44.0305783 170.638644,43.7387383 169.927347,43.7387383 C168.979816,43.7387383 167.655868,44.5647497 166.373457,46.0187383 C165.760807,46.6936183 165.431118,47.3242011 164.857407,48.5827611 C165.23642,48.629664 165.431118,48.6791726 165.711483,48.6791726 M164.338212,50.9070583 C164.338212,52.5069669 165.431118,53.6691154 166.947167,53.6691154 C169.075867,53.6691154 171.822409,51.6340526 175.804635,47.0818697 L176.370557,46.4538926 C176.513336,46.3079726 176.656115,46.1620526 176.700246,46.0656411 C176.843025,45.8728183 176.939076,45.8233097 177.035127,45.8233097 C177.128582,45.8233097 177.222037,45.9197211 177.222037,46.0656411 C177.222037,46.1620526 177.128582,46.3079726 176.419881,47.1287726 C173.670743,50.2295726 172.297472,51.584544 170.545189,52.9421211 C168.792906,54.2970926 167.134077,55.0735954 165.950313,55.0735954 C164.143514,55.0735954 162.918214,53.7655269 162.918214,51.8789897 C162.918214,50.763744 163.29463,49.5520869 164.055251,48.1945097 C165.662159,45.3386469 168.603399,42.9674469 170.498461,42.9674469 C171.443396,42.9674469 172.014511,43.449504 172.014511,44.2260069 C172.014511,46.5007954 168.554076,49.1169326 165.615432,49.1169326 C165.332471,49.1169326 165.142964,49.1169326 164.670497,49.067424 C164.434263,49.9377326 164.338212,50.3285897 164.338212,50.9070583" id="Fill-33" fill="#FEFEFE"></path>
                        <path d="M165.711483,48.6791726 C168.12574,48.6791726 171.017656,46.5007954 171.017656,44.7106697 C171.017656,44.0305783 170.638644,43.7387383 169.927347,43.7387383 C168.979816,43.7387383 167.655868,44.5647497 166.373457,46.0187383 C165.760807,46.6936183 165.431118,47.3242011 164.857407,48.5827611 C165.23642,48.629664 165.431118,48.6791726 165.711483,48.6791726 L165.711483,48.6791726 Z M164.338212,50.9070583 C164.338212,52.5069669 165.431118,53.6691154 166.947167,53.6691154 C169.075867,53.6691154 171.822409,51.6340526 175.804635,47.0818697 L176.370557,46.4538926 C176.513336,46.3079726 176.656115,46.1620526 176.700246,46.0656411 C176.843025,45.8728183 176.939076,45.8233097 177.035127,45.8233097 C177.128582,45.8233097 177.222037,45.9197211 177.222037,46.0656411 C177.222037,46.1620526 177.128582,46.3079726 176.419881,47.1287726 C173.670743,50.2295726 172.297472,51.584544 170.545189,52.9421211 C168.792906,54.2970926 167.134077,55.0735954 165.950313,55.0735954 C164.143514,55.0735954 162.918214,53.7655269 162.918214,51.8789897 C162.918214,50.763744 163.29463,49.5520869 164.055251,48.1945097 C165.662159,45.3386469 168.603399,42.9674469 170.498461,42.9674469 C171.443396,42.9674469 172.014511,43.449504 172.014511,44.2260069 C172.014511,46.5007954 168.554076,49.1169326 165.615432,49.1169326 C165.332471,49.1169326 165.142964,49.1169326 164.670497,49.067424 C164.434263,49.9377326 164.338212,50.3285897 164.338212,50.9070583 L164.338212,50.9070583 Z" id="Stroke-35" stroke="#FEFEFE" stroke-width="0.25"></path>
                        <path d="M190.9589,47.518848 C191.81038,47.518848 192.617728,47.081088 193.42248,46.1612709 C193.565259,46.0179566 193.66131,45.968448 193.754765,45.968448 C193.845624,45.968448 193.990999,46.0648594 193.990999,46.1612709 C193.990999,46.3071909 193.60939,46.6954423 193.139519,47.1305966 C192.381494,47.7611794 191.71952,48.0035109 190.912172,48.0035109 C190.151551,48.0035109 189.632356,47.8080823 188.967787,47.2765166 C187.547788,51.2476251 184.801246,54.1529966 182.527172,54.1529966 C181.153901,54.1529966 180.346553,53.0377509 180.159643,51.1017051 C178.217853,53.2305737 176.844582,54.1529966 175.468715,54.1529966 C174.37581,54.1529966 173.617785,53.2800823 173.617785,52.0710309 C173.617785,49.8431451 175.185754,46.8387566 177.740194,44.0297966 L177.9297,43.7874651 C178.451491,43.6441509 178.973282,43.5477394 179.681983,43.4982309 C176.647288,46.8387566 174.993652,49.8431451 174.993652,51.878208 C174.993652,52.6521051 175.512847,53.2305737 176.224144,53.2305737 C177.361181,53.2305737 179.116061,51.878208 180.107723,50.2287909 L180.159643,49.9864594 C180.489332,48.2432366 180.725565,47.5683566 181.390135,46.5964251 C181.818471,45.968448 182.194887,45.6792137 182.527172,45.6792137 C182.810133,45.6792137 182.997044,45.8720366 182.997044,46.1612709 C182.997044,46.7918537 182.5739,47.664768 181.532914,49.1656594 L181.249952,49.6008137 L181.249952,50.2809051 C181.249952,52.0710309 182.002785,53.2305737 183.095691,53.2305737 C185.084208,53.2305737 187.594516,50.327808 188.588774,46.8387566 C188.209762,45.968448 188.069579,45.2414537 188.069579,44.5170651 C188.069579,43.5946423 188.308409,42.9666651 188.687421,42.9666651 C189.113161,42.9666651 189.396123,43.6441509 189.396123,44.709888 C189.396123,45.2909623 189.300072,45.9215451 189.113161,46.6954423 C189.723215,47.2765166 190.250198,47.518848 190.9589,47.518848" id="Fill-37" fill="#FEFEFE"></path>
                        <path d="M190.9589,47.518848 C191.81038,47.518848 192.617728,47.081088 193.42248,46.1612709 C193.565259,46.0179566 193.66131,45.968448 193.754765,45.968448 C193.845624,45.968448 193.990999,46.0648594 193.990999,46.1612709 C193.990999,46.3071909 193.60939,46.6954423 193.139519,47.1305966 C192.381494,47.7611794 191.71952,48.0035109 190.912172,48.0035109 C190.151551,48.0035109 189.632356,47.8080823 188.967787,47.2765166 C187.547788,51.2476251 184.801246,54.1529966 182.527172,54.1529966 C181.153901,54.1529966 180.346553,53.0377509 180.159643,51.1017051 C178.217853,53.2305737 176.844582,54.1529966 175.468715,54.1529966 C174.37581,54.1529966 173.617785,53.2800823 173.617785,52.0710309 C173.617785,49.8431451 175.185754,46.8387566 177.740194,44.0297966 L177.9297,43.7874651 C178.451491,43.6441509 178.973282,43.5477394 179.681983,43.4982309 C176.647288,46.8387566 174.993652,49.8431451 174.993652,51.878208 C174.993652,52.6521051 175.512847,53.2305737 176.224144,53.2305737 C177.361181,53.2305737 179.116061,51.878208 180.107723,50.2287909 L180.159643,49.9864594 C180.489332,48.2432366 180.725565,47.5683566 181.390135,46.5964251 C181.818471,45.968448 182.194887,45.6792137 182.527172,45.6792137 C182.810133,45.6792137 182.997044,45.8720366 182.997044,46.1612709 C182.997044,46.7918537 182.5739,47.664768 181.532914,49.1656594 L181.249952,49.6008137 L181.249952,50.2809051 C181.249952,52.0710309 182.002785,53.2305737 183.095691,53.2305737 C185.084208,53.2305737 187.594516,50.327808 188.588774,46.8387566 C188.209762,45.968448 188.069579,45.2414537 188.069579,44.5170651 C188.069579,43.5946423 188.308409,42.9666651 188.687421,42.9666651 C189.113161,42.9666651 189.396123,43.6441509 189.396123,44.709888 C189.396123,45.2909623 189.300072,45.9215451 189.113161,46.6954423 C189.723215,47.2765166 190.250198,47.518848 190.9589,47.518848 L190.9589,47.518848 Z" id="Stroke-39" stroke="#FEFEFE" stroke-width="0.25"></path>
                        <path d="M138.76552,10.7715017 C141.083726,10.7715017 142.971,12.6163474 144.34427,16.3034331 C145.720137,20.0765074 146.665072,26.838336 146.665072,33.331776 C146.665072,37.3732389 146.317212,41.1463131 145.63447,45.7115246 C146.145877,44.9193874 146.06021,45.0991817 147.778746,41.7612617 C149.751687,38.0767817 153.962359,31.6667246 157.308571,27.3620846 C161.942387,21.3949989 165.376862,17.7939017 170.267679,13.7576503 C176.705698,8.22571886 183.146312,4.18946743 189.498664,1.64107886 C191.72601,0.676964571 192.844876,0.325193143 193.61588,0.325193143 C194.477744,0.325193143 194.989151,0.762953143 194.989151,1.38050743 C194.989151,1.64107886 194.817817,2.25602743 194.558219,2.95957029 C194.558219,3.04555886 194.477744,3.31134171 194.30641,3.57191314 C187.517935,4.36405029 177.993301,9.19243886 169.927606,15.8630674 C159.45025,24.467136 149.152017,38.7777189 144.34427,51.0688731 L143.830267,52.3847589 C143.401931,53.4374674 143.14493,54.2296046 142.971,54.6673646 C142.197399,57.5623131 141.600325,58.3544503 140.398388,58.3544503 C139.967456,58.3544503 139.622191,58.265856 138.851187,58.0912731 C142.114328,51.0688731 143.658933,43.8666789 143.658933,35.3538103 C143.658933,30.2596389 142.887928,23.7635931 141.769063,19.815936 C140.567126,15.1621303 138.679852,12.5277531 136.706911,12.5277531 C134.645707,12.5277531 131.639568,14.8103589 127.779352,19.1123931 L127.434088,18.320256 C131.813498,13.3198903 135.676309,10.7715017 138.76552,10.7715017" id="Fill-41" fill="#FEFEFE"></path>
                        <path d="M138.76552,10.7715017 C141.083726,10.7715017 142.971,12.6163474 144.34427,16.3034331 C145.720137,20.0765074 146.665072,26.838336 146.665072,33.331776 C146.665072,37.3732389 146.317212,41.1463131 145.63447,45.7115246 C146.145877,44.9193874 146.06021,45.0991817 147.778746,41.7612617 C149.751687,38.0767817 153.962359,31.6667246 157.308571,27.3620846 C161.942387,21.3949989 165.376862,17.7939017 170.267679,13.7576503 C176.705698,8.22571886 183.146312,4.18946743 189.498664,1.64107886 C191.72601,0.676964571 192.844876,0.325193143 193.61588,0.325193143 C194.477744,0.325193143 194.989151,0.762953143 194.989151,1.38050743 C194.989151,1.64107886 194.817817,2.25602743 194.558219,2.95957029 C194.558219,3.04555886 194.477744,3.31134171 194.30641,3.57191314 C187.517935,4.36405029 177.993301,9.19243886 169.927606,15.8630674 C159.45025,24.467136 149.152017,38.7777189 144.34427,51.0688731 L143.830267,52.3847589 C143.401931,53.4374674 143.14493,54.2296046 142.971,54.6673646 C142.197399,57.5623131 141.600325,58.3544503 140.398388,58.3544503 C139.967456,58.3544503 139.622191,58.265856 138.851187,58.0912731 C142.114328,51.0688731 143.658933,43.8666789 143.658933,35.3538103 C143.658933,30.2596389 142.887928,23.7635931 141.769063,19.815936 C140.567126,15.1621303 138.679852,12.5277531 136.706911,12.5277531 C134.645707,12.5277531 131.639568,14.8103589 127.779352,19.1123931 L127.434088,18.320256 C131.813498,13.3198903 135.676309,10.7715017 138.76552,10.7715017 L138.76552,10.7715017 Z" id="Stroke-43" stroke="#FEFEFE" stroke-width="0.25"></path>
                    </g>
                </g>
            </g>
        </g>
    </g>
</svg>